<svg xmlns="http://www.w3.org/2000/svg" xmlns:xlink="http://www.w3.org/1999/xlink" viewBox="0 0 3035.13 2670.87"><defs><style>.cls-1,.cls-6,.cls-7{fill:#fff;}.cls-1{opacity:0.3;}.cls-1,.cls-11,.cls-15,.cls-26,.cls-39,.cls-40,.cls-43,.cls-44,.cls-7,.cls-9{isolation:isolate;}.cls-2,.cls-26,.cls-7,.cls-9{opacity:0.1;}.cls-3{fill:#f7f7fd;}.cls-15,.cls-4,.cls-43{opacity:0.2;}.cls-26,.cls-39,.cls-5{fill:#13b094;}.cls-8{fill:#d38884;}.cls-10{fill:#4c4981;}.cls-11,.cls-48{opacity:0.05;}.cls-12{fill:#ceddf9;}.cls-13{fill:#cc8294;}.cls-14{fill:#1e1637;}.cls-16{fill:#ffd2c6;}.cls-17{fill:#626696;}.cls-18{fill:#eb9d71;}.cls-19{fill:#985c7e;}.cls-20{fill:url(#linear-gradient);}.cls-21{fill:#db8b8b;}.cls-22{fill:#2e3037;}.cls-23{fill:#474463;}.cls-24{fill:#8c43dd;}.cls-25{fill:#472727;}.cls-27{fill:url(#linear-gradient-2);}.cls-28{fill:#65617d;}.cls-29{fill:#fbbebe;}.cls-30{fill:#e7effd;}.cls-31{fill:#3f3d56;}.cls-32{fill:#5f5d7e;}.cls-33{fill:#7c5c5c;}.cls-34{fill:#e6e8ec;}.cls-35{fill:#c8cad7;}.cls-36{fill:#474157;}.cls-37{fill:#4c4c78;}.cls-38{fill:#ededf4;}.cls-39,.cls-40,.cls-41,.cls-44{opacity:0.5;}.cls-40,.cls-42{fill:#dce0ed;}.cls-43{fill:none;stroke:#5a5773;stroke-miterlimit:10;stroke-dasharray:12;}.cls-44{fill:#6c63ff;}.cls-45{fill:url(#linear-gradient-3);}.cls-46{fill:#2d293d;}.cls-47{fill:#575988;}.cls-49{fill:#ffcdd3;}.cls-50{fill:#dce6f2;}.cls-51{fill:#656691;}</style><linearGradient id="linear-gradient" x1="-848.54" y1="-810.65" x2="-848.54" y2="-14.87" gradientTransform="translate(-291.37 948.78) rotate(180)" gradientUnits="userSpaceOnUse"><stop offset="0" stop-color="gray" stop-opacity="0.25"/><stop offset="0.54" stop-color="gray" stop-opacity="0.12"/><stop offset="1" stop-color="gray" stop-opacity="0.1"/></linearGradient><linearGradient id="linear-gradient-2" x1="2158.14" y1="-1632.77" x2="2158.14" y2="-200.52" gradientTransform="matrix(1, 0, 0, -1, -28.43, 1001.61)" xlink:href="#linear-gradient"/><linearGradient id="linear-gradient-3" x1="1035.65" y1="-403.92" x2="1035.65" y2="309.93" gradientTransform="matrix(1, -0.04, -0.04, -1, -39.15, 944.53)" xlink:href="#linear-gradient"/></defs><title>new</title><g id="Layer_3" data-name="Layer 3"><path class="cls-1" d="M1869.24,258.61c-130.24,91.18-299.16,85.3-447.19,37.85s-284-131.92-428.24-192A1391.4,1391.4,0,0,0,617.56,6.43c-183.82-21-389.1,4.58-517.16,152-142.63,164.14-131.67,460.25,22.52,611,78.48,76.65,181.23,114.27,270.83,174.11s172.62,159.15,165,274.6c-7.07,107-89.21,189-174.22,240.5-65.7,39.79-146.6,83.24-154.51,165.66-7.66,79.75,60.37,142.23,125.34,177.77,211.92,115.95,473.06,114.83,684.25-2.82,75.3-42.1,144.45-98,223.44-130.57,207.39-85.94,435.92.59,655.53,32.21a1310.31,1310.31,0,0,0,557.54-40.57c108.75-32.13,217.92-81.24,294.32-172.73,55.1-66,89.43-149.44,121.64-231.91q51.54-131.87,99.09-265.62c19-53.5,37.73-108.08,42.66-165.35,8.9-103.77-28.61-206.35-79.69-293.92-121.28-208.09-325.54-354.29-546.75-391.43s-455.24,35.39-626.81,194.12"/><g class="cls-2"><path d="M1522.38,291.17l-10.73,622.3s388.37,0,718.81,107.29l6.42-628.67S1706.9,265.4,1522.38,291.17Z"/></g><path class="cls-3" d="M1513.93,279.9,1503.2,902.21s388.37,0,718.81,107.28l6.42-628.67S1698.46,254.14,1513.93,279.9Z"/><g class="cls-2"><path d="M1327.41,309l10.73,622.31s-388.37,0-718.78,107.28l-6.45-628.67S1142.89,283.37,1327.41,309Z"/></g><path class="cls-3" d="M1335.86,294.91l10.73,622.31s-388.37,0-718.78,107.28l-6.45-628.67S1151.33,269.29,1335.86,294.91Z"/><g class="cls-4"><path class="cls-5" d="M1161.42,367.5l5.77,333.71s-208.38,0-385.49,57.53L778.23,421.6S1062.47,353.76,1161.42,367.5Z"/></g><g class="cls-2"><path d="M2465.78,520.07v615.8s126.71-15,392.67,313.26l23.6-615.8S2605.25,535.08,2465.78,520.07Z"/></g><path class="cls-3" d="M2460.15,511.62v615.8s126.71-15,392.67,313.26l23.6-615.8S2599.62,526.63,2460.15,511.62Z"/><g class="cls-2"><path d="M417.66,522.88v615.8s-126.6-15-392.5,313.27L1.42,836.15S278.19,537.89,417.66,522.88Z"/></g><path class="cls-3" d="M426.11,511.62v615.8s-126.6-15-392.5,313.26L9.87,824.88S286.64,526.63,426.11,511.62Z"/><g class="cls-4"><polygon class="cls-5" points="1617.7 409.35 1880.78 456.4 1880.78 494.72 1617.7 444.21 1617.7 409.35"/></g><polygon class="cls-6" points="1110.84 779.63 847.78 826.69 847.78 865.01 1110.84 814.49 1110.84 779.63"/><polygon class="cls-6" points="1621.19 480.79 2102.03 580.1 2102.03 618.42 1621.19 515.65 1621.19 480.79"/><polygon class="cls-6" points="1621.19 552.22 2102.03 651.51 2102.03 689.86 1621.19 587.06 1621.19 552.22"/><g class="cls-4"><polygon class="cls-5" points="2572.28 710.48 2572.28 744.29 2675.42 828.09 2680.26 799.09 2572.28 710.48"/></g><polygon class="cls-6" points="2572.28 1037.12 2572.28 1070.93 2675.42 1154.73 2680.26 1125.73 2572.28 1037.12"/><polygon class="cls-6" points="2573.91 768.48 2572.28 802.33 2767.27 986.01 2764.06 947.35 2573.91 768.48"/><polygon class="cls-6" points="2572.28 831.33 2572.28 863.55 2767.27 1050.49 2767.27 1008.59 2572.28 831.33"/><g class="cls-4"><polygon class="cls-5" points="312.35 717.8 313.95 751.64 118.98 935.32 122.19 896.66 312.35 717.8"/></g><g class="cls-4"><polygon class="cls-5" points="313.95 780.65 313.95 812.86 118.98 999.8 118.98 957.9 313.95 780.65"/></g><ellipse class="cls-7" cx="576.14" cy="1751.13" rx="160.5" ry="28.89"/><ellipse class="cls-7" cx="1690.91" cy="1325.46" rx="264.69" ry="45.34"/><path class="cls-8" d="M1637.52,713.6a36.62,36.62,0,0,0-2.81,8.65c-.17.75-.34,1.53-.51,2.36-1.69,8.62-2.82,19.46-3.41,25.77-.28,3.15-.42,5.18-.42,5.18s-61.08-4.09-50.49-14.34a22.51,22.51,0,0,0,5.63-10.13c.31-1.1.57-2.2.79-3.33a57.48,57.48,0,0,0,1-7.74v-2a79.71,79.71,0,0,0-.6-12.64s19.86,0,34.84,1.6C1631.61,708.17,1639.46,710.17,1637.52,713.6Z"/><path class="cls-8" d="M1531.64,1004.23c-20.8-.68-5.46-44-3.06-49.84s-3.55-20.11-3.55-20.11-7-41.28-7-44a109.76,109.76,0,0,0-2.37-16.73,28.17,28.17,0,0,1,2.82-16.39c2.39-3.74,2-18.75,2-18.75V819l4.64-6.14L1537,824.12l3.29,3.1,5.8,21.74-2,31.14-1.1,30.33,7.18,42S1552.59,1004.93,1531.64,1004.23Z"/><polygon class="cls-9" points="1538.23 829.28 1520.49 821.9 1520.49 819.03 1525.11 812.89 1536.99 824.1 1538.23 829.28"/><path class="cls-10" d="M1530.07,784.9a81.65,81.65,0,0,0-4.93,17.4,77.57,77.57,0,0,1-4.65,16.7l19.71,8.19Z"/><path class="cls-11" d="M1530.07,784.9a81.65,81.65,0,0,0-4.93,17.4,77.57,77.57,0,0,1-4.65,16.7l19.71,8.19Z"/><path class="cls-8" d="M1687.08,1215.7l-1.63,3.49s-1.78,11.57-1.78,11.85-5.12,8-5.12,8l-12.87,2.82-5.46-.68a75.61,75.61,0,0,0-1.47-9.46c-.19-.87-.39-1.77-.64-2.68a72.57,72.57,0,0,0-9-20.38s-9.54-23.54-12.95-26.61-16.39-34.13-15-41.62c.73-4.11.14-17.91-.53-29.4-.57-9.37-1.19-17.26-1.19-17.26l32.41-19.15,3.78,5.94h0l2.25,3.52a16.34,16.34,0,0,1-.14,1.81v.42a59.92,59.92,0,0,1-2.82,14.08s-2.42,17.4,0,20.47,10.14,44.1,11.86,63.07v1.72c.67,8.73,6.08,16.5,11.52,22.19h0c.33.4.7.76,1.07,1.13A74.76,74.76,0,0,0,1687.08,1215.7Z"/><path class="cls-9" d="M1660.22,1241.12l5.46.68,12.87-2.82s5.12-7.74,5.12-8,1.78-11.86,1.78-11.86l1.63-3.49.2-.42a67.94,67.94,0,0,1-8.84-7.29h0c-.31-.29-.62-.57-.91-.88s1.83,11.27-8,16.31c-4.76,2.45-8.68,4.33-11.41,5.63Z"/><path class="cls-12" d="M1689.33,1217.33l-1.83,3.91s-1.77,11.58-1.77,11.86-5.13,8-5.13,8l-12.86,2.81-7.41-.87a48.43,48.43,0,0,0-.62-6.17c-.23-1.55-.53-3.26-1-5.12,2.82-1.27,7.18-3.35,12.79-6.25,9.82-5,8-16.31,8-16.31a76.33,76.33,0,0,0,6.73,6C1687.59,1216.12,1688.69,1216.88,1689.33,1217.33Z"/><path class="cls-9" d="M1689.33,1217.33l-1.83,3.91s-1.77,11.58-1.77,11.86-5.13,8-5.13,8l-12.86,2.81-7.41-.87a48.43,48.43,0,0,0-.62-6.17,25.37,25.37,0,0,1,4.67.65s17.58,3.75,18.42-10.16c.51-7.89,2.14-11,3.44-12.2C1687.59,1216.12,1688.69,1216.88,1689.33,1217.33Z"/><path class="cls-13" d="M1688,1216.4s-4.37-1-5.24,12.93-18.42,10.16-18.42,10.16-8.61-2.14-8.7,1.44a33.71,33.71,0,0,0,2.31,9.63s.51,8.28,2.14,10.25.59,9.29.59,9.29.68,5.46,14.25,0c0,0,12.11-2.51,22.16-17.57.34-.51-1.18-2.06,7.61-5.21s33.79-23.37,32-33.26a8.42,8.42,0,0,0-6-7.09,10.27,10.27,0,0,0-7.85,1.07,64.2,64.2,0,0,1-7.35,3.38,36.05,36.05,0,0,1-10.48,2.5,41,41,0,0,0-8.13,1.55A16.8,16.8,0,0,1,1688,1216.4Z"/><path class="cls-8" d="M1588.58,1120.83a23.94,23.94,0,0,0-4.95,5.63c-5,7.58-8,18.17-11.27,22.73-4.33,5.91-5.63,17.4-5.63,17.4-1.15,7.55-17.15,47.87-21.48,55s-10.37,26.61-10.37,26.61c-3.69,4.62-3.46,11.49-3.09,14.76a3.1,3.1,0,0,0,.16,1.32.49.49,0,0,1,0,.53v.2l-5.91,10-18.81-2.61-9.71-6.59a34.32,34.32,0,0,0,2.11-4c5.21-11.6,8.9-32.33,8.9-32.33s5.23-23.65,4.84-29.17a220.46,220.46,0,0,1,1.55-22.53s14.81-45.19,19.54-52.51a21.1,21.1,0,0,0,3.55-9.72,8.28,8.28,0,0,0,0-2.11l6.36-6.33S1596.75,1114.33,1588.58,1120.83Z"/><path class="cls-9" d="M1532.15,1262.86v2.23l-5.91,10.05-18.81-2.62-9.72-6.59a34.26,34.26,0,0,0,2.12-4c4.73-1.36,15.54,2.47,15.54,2.47s11.69,2.23,16.61-1.35C1532,1263,1532,1262.92,1532.15,1262.86Z"/><path class="cls-12" d="M1527.56,1289.7l-19.09,4.56-17.51-13,.9-7.3a12.69,12.69,0,0,0,3.21-2.81,11.6,11.6,0,0,0,2.53-5.24c1-5.38,17.66.51,17.66.51s12.16,2.31,16.89-1.55a29.69,29.69,0,0,0,.9,10.53,7.84,7.84,0,0,0,2.82,4.2C1540.74,1283,1527.56,1289.7,1527.56,1289.7Z"/><path class="cls-9" d="M1527.56,1289.7l-19.09,4.56-17.51-13,.9-7.3a12.69,12.69,0,0,0,3.21-2.81h3.83c2.81.28,9.85,12.81,9.85,12.81,17.29,1.15,22.53-4.51,24.3-8.67a7.82,7.82,0,0,0,2.82,4.19C1540.74,1283,1527.56,1289.7,1527.56,1289.7Z"/><path class="cls-13" d="M1508.75,1286.12s-6.93-12.53-9.85-12.78a66,66,0,0,0-7.44,0s-7.66,18.16-10.47,19.71-6.93,10.25-6.93,10.25,20.27,19.71,39.87,15.85a40.59,40.59,0,0,1,18,4.48c9.07,4.73,46.94,1.15,51.56-7.15,3.43-6.25,4.81-10.79,1.77-14.08a8.22,8.22,0,0,0-7.12-2.42c-4.76.64-15.46.53-24.84-11,0,0-17.29-15.82-18.7-15.85S1535.73,1287.92,1508.75,1286.12Z"/><path class="cls-9" d="M1657.91,1086.14l-.14.17c-1.19,1.29-9.52,10.45-12,11.09a120,120,0,0,0-12.28,5.44s-5.13,6.84-9.21,7.18a16.09,16.09,0,0,0-3.6,1c-.57-9.38-1.19-17.27-1.19-17.27l32.41-19.09,3.78,5.94h0c.84,2.4,1.8,4.62,2.11,5.33Z"/><path class="cls-12" d="M1540.09,954.39s-12.61,16.44,0,38.26A127.4,127.4,0,0,0,1566,1025.4l43,89s11.26-6.14,15.37-6.48,9.21-7.15,9.21-7.15a119.16,119.16,0,0,1,12.28-5.46c2.81-.68,12.19-11.27,12.19-11.27s-4.7-10.22-3.66-12.95-3.07-9.57-3.07-9.57a56.74,56.74,0,0,1-2.82-10.56c0-2.82-4.45-9.21-4.45-9.21s-4.42-6.84-4.42-10.59-6.61-18.53-6.61-18.53l-1.72-64.76Z"/><path class="cls-11" d="M1657.91,1084.08s-9.46,10.56-12.19,11.27a118.21,118.21,0,0,0-12.28,5.46s-5.13,6.81-9.21,7.15a32.67,32.67,0,0,0-8.45,3c-3.66,1.66-7,3.46-7,3.46l-43-89a93.46,93.46,0,0,1-10.45-10.7,147.6,147.6,0,0,1-15.48-22.05,36.89,36.89,0,0,1-4.9-26.55,30.28,30.28,0,0,1,4.9-11.69l30.58-2.16,60.9-4.34.51,19.17,1.13,45.59s1,2.28,2.22,5.3a57.65,57.65,0,0,1,4.25,13.12c0,3.77,4.42,10.59,4.42,10.59s4.45,6.47,4.45,9.21a56.94,56.94,0,0,0,2.82,10.58s4.11,6.82,3.1,9.52S1657.91,1084.08,1657.91,1084.08Z"/><path class="cls-9" d="M1588.58,1120.83a23.94,23.94,0,0,0-4.95,5.63c-18.56,1.35-40.13-8.44-45.73-11a8.28,8.28,0,0,0,0-2.11l6.36-6.33S1596.75,1114.33,1588.58,1120.83Z"/><path class="cls-12" d="M1643.32,974.58s-2.81,9.54-3.74,13.62-3.07,24.25-3.07,24.25l-1.19,5.63L1615.84,1111l-4.25,20.19c-7.49,4.11-26.25-6.84-26.25-6.84-21.85,2.42-48.8-11.57-48.8-11.57s4.43-14.34,3.41-21.49,6.14-13,6.14-13c-1.69-6.47,4.42-34.8,4.42-34.8s1.38-10.56,6.51-13.29-.68-6.82-2.06-9.24a10.45,10.45,0,0,1,.48-6.25,44.63,44.63,0,0,1,1.58-4.65c-13-13-15-33.34-15-44.63a73.35,73.35,0,0,1,.36-8.25l28.16-4.93L1632,941.52l6.28,19.31h0l1.58,4.85Z"/><path class="cls-9" d="M1637.52,713.6a36.62,36.62,0,0,0-2.81,8.65c-.17.75-.34,1.53-.51,2.36-5.94,3.86-9.6,3.89-17.21,3.89-2.62,0-4.08-5-6.56-5.63,0,0-3.71-13.41-4.76-2.12-7.15-1.46-13.32,4.11-18.38-.76h0v-2a79.71,79.71,0,0,0-.6-12.64s19.86,0,34.84,1.6C1631.61,708.17,1639.46,710.17,1637.52,713.6Z"/><path class="cls-8" d="M1651.6,690.62a38.07,38.07,0,0,1-38.13,38,38.65,38.65,0,0,1-7.51-.76h0A38,38,0,1,1,1646.73,672,37.36,37.36,0,0,1,1651.6,690.62Z"/><path class="cls-9" d="M1630.79,750.38c-.28,3.15-.42,5.18-.42,5.18s-61.08-4.09-50.49-14.34a22.51,22.51,0,0,0,5.63-10.13l26.5,4.33s7.49,5.8,13.29,11.27A24.24,24.24,0,0,0,1630.79,750.38Z"/><path class="cls-9" d="M1639.91,967.62a19.59,19.59,0,0,1-8-.59,16.17,16.17,0,0,1-3.24-1.44c-5.12-3.07-22.16.71-22.16.71s-46.4,3.07-48.46,0c-1.16-1.78-9.35-1.52-16-1-2.82.23-5.21.51-6.93.68a30.59,30.59,0,0,1,4.9-11.69l30.58-2.17,61.53-10.75,6.28,19.31h0A68.09,68.09,0,0,0,1639.91,967.62Z"/><path class="cls-10" d="M1611.93,737.48,1578.64,732a9.9,9.9,0,0,1-6.28,5.46c-4.42,1-24.21,11.26-33.08,23.54l-8.87,12.31s-7.18,8.87-4.79,16,5.12,31.39,5.12,31.39l3.41,27s6.48,19.46,4.45,28,1,44.35,1,44.35l-6.81,44.35s23.17-3.07,25.34,0,48.46,0,48.46,0,16.9-3.77,22.16-.7a18.61,18.61,0,0,0,11.27,2.05s-4.09-14.08-1.72-21.82,1.72-22.19,1.72-22.19,3.4-20.81,1.69-24.55,3.77-17.4,3.77-17.4l18.08-95.18s-2.2-17.07-11.86-22.87-20.55-7.51-26.35-13S1611.93,737.48,1611.93,737.48Z"/><path class="cls-8" d="M1627.38,831.3v11.27l10.51,28.33,3.8,26.27s6.84,18.75,6.84,25.34,16.7,37.87,16.7,37.87,4.56,10.59,2.28,12.62-22,47.08,2.82,45.73,17.06-48.44,17.06-48.44L1684,949.82s-4.78-51.19-4.78-54.93c0,0-6.14-21.83-6.82-26.61s-5.12-29-5.12-29l-3.75-15.68Z"/><polygon class="cls-9" points="1615.42 866.78 1578.33 888.01 1566.82 905.42 1582.16 889.82 1615.42 866.78"/><path class="cls-9" d="M1604.18,907.44s-16.89,11-24.83,11S1553,937.38,1553,937.38s26.1-16.9,28.16-16.36S1604.18,907.44,1604.18,907.44Z"/><path class="cls-9" d="M1560.93,913.33s-15.85,14.33-11.77,15.88,25.34-15.88,25.34-15.88Z"/><path class="cls-9" d="M1631,862.17s-12.27,16.64-9,16.38,12.78-9.74,12.78-9.74Z"/><path class="cls-9" d="M1632.82,878.55s-13.29,15.1-12.79,18.93S1632.82,878.55,1632.82,878.55Z"/><path class="cls-9" d="M1636.17,886.1s-9,16-5.13,19.32S1636.17,886.1,1636.17,886.1Z"/><path class="cls-9" d="M1624.57,845s-6.68,11.26-1.8,12,5.35,0,5.35,0Z"/><path class="cls-9" d="M1626.43,803.82a118.45,118.45,0,0,1-6.82,20.08,92.26,92.26,0,0,1-2.64-10A67.51,67.51,0,0,1,1626.43,803.82Z"/><path class="cls-9" d="M1646.73,672a16.44,16.44,0,0,1-2.56,4,29.49,29.49,0,0,0-4.62,5.3,28.4,28.4,0,0,0-1.66,9c-.51,3-2.42,6.42-5.63,6.5a11.35,11.35,0,0,1-4.51-1.35,4.61,4.61,0,0,0-4.48.14,5,5,0,0,0-1.43,3.38,44.59,44.59,0,0,0-.45,8,20,20,0,0,0,.17,3.18,17.89,17.89,0,0,1-.6,10.14,12.24,12.24,0,0,1-6.3,5.06,38.31,38.31,0,0,1-8.85,2.48h0a97.6,97.6,0,0,1-17.43.57,4.42,4.42,0,0,1-1.57-.26,2.27,2.27,0,0,1-.68-.42,52.83,52.83,0,0,0,1-9.71,38,38,0,1,1,59.56-46Z"/><path class="cls-14" d="M1630.85,639.77c-3.49-.37-6.79,1.49-10.22,2.25-7.07,1.55-14.31-1.66-21.57-1.63a40,40,0,0,0-17.74,5.29,42.77,42.77,0,0,0-11.83,8.28,19.32,19.32,0,0,0-5.63,13,21.29,21.29,0,0,1-.26,8.45,23.29,23.29,0,0,1-2.59,3.94,11.71,11.71,0,0,0-1.21,9.77,32.52,32.52,0,0,0,5.83,8.73c4.68,6,7.61,13.18,11.8,19.54a60,60,0,0,0,6.14,7.8,4.28,4.28,0,0,0,1.32,1,3.92,3.92,0,0,0,1.55.23c8.9.25,18.11.45,26.3-3a12,12,0,0,0,6.31-5.07,17.89,17.89,0,0,0,.62-10.14,46.62,46.62,0,0,1,.25-11.26,5,5,0,0,1,1.44-3.35,4.5,4.5,0,0,1,4.5-.14,12.44,12.44,0,0,0,4.48,1.35c3.07,0,5-3.49,5.63-6.53a15.33,15.33,0,0,1,6.28-14.34,21.68,21.68,0,0,0,3.86-19.23C1644.08,648.39,1637.89,640.47,1630.85,639.77Z"/><path class="cls-9" d="M1667.37,801.48a44.34,44.34,0,0,0,0,14.08c-.34,3.78,0,24.59,0,24.59-11.26-3.44-39.9,3.4-39.9,3.4l-3.41-10.22a25.36,25.36,0,0,1-4.28-8.45,93.93,93.93,0,0,1-2.65-10.08,212.13,212.13,0,0,1-3.35-21.43c-1.43-10.84,14.7-22.52,26.92-29s22.92,21.15,22.92,21.15S1668.72,796.13,1667.37,801.48Z"/><path class="cls-10" d="M1667.37,799.54a44.34,44.34,0,0,0,0,14.08c-.34,3.75,0,24.55,0,24.55-11.26-3.4-39.9,3.41-39.9,3.41l-3.41-10.22a25.08,25.08,0,0,1-4.28-8.45,94,94,0,0,1-2.65-10,212.13,212.13,0,0,1-3.35-21.43c-1.43-10.87,14.7-22.53,26.92-29s22.92,21.15,22.92,21.15S1668.72,794.08,1667.37,799.54Z"/><path class="cls-15" d="M1645.72,654.72a22.72,22.72,0,0,0-2.51-5.49c.17.48.34.93.48,1.41a21.68,21.68,0,0,1-3.86,19.23,15.32,15.32,0,0,0-6.28,14.33c-.48,3-2.42,6.4-5.63,6.51a11.73,11.73,0,0,1-4.51-1.35,4.56,4.56,0,0,0-4.47.14,5,5,0,0,0-1.44,3.38,46.12,46.12,0,0,0-.25,11.26c.31,3.43,1,7.12-.62,10.16a12.47,12.47,0,0,1-6.31,5.07c-8.19,3.49-17.4,3.3-26.3,3a4.1,4.1,0,0,1-1.55-.25,3.53,3.53,0,0,1-1.32-1,54.31,54.31,0,0,1-6.14-7.8c-4.2-6.36-7.13-13.52-11.8-19.54a57.13,57.13,0,0,1-3.86-5v.34a31.31,31.31,0,0,0,5.83,8.73c4.65,6,7.6,13.18,11.77,19.54a58.75,58.75,0,0,0,6.17,7.8,3.07,3.07,0,0,0,2.84,1.27c8.9.25,18.14.45,26.3-3a12,12,0,0,0,6.31-5.07,17.89,17.89,0,0,0,.62-10.14,49.89,49.89,0,0,1,.25-11.26,5.17,5.17,0,0,1,1.44-3.35,4.47,4.47,0,0,1,4.5-.14,12.44,12.44,0,0,0,4.48,1.35c3.1,0,5-3.49,5.63-6.54a27.54,27.54,0,0,1,1.67-9,28.4,28.4,0,0,1,4.61-5.3A21.73,21.73,0,0,0,1645.72,654.72Z"/><path class="cls-16" d="M1920.23,662.13l-24.33,51.7s-3.57,9.71-5.88,11.51-12.53,32.5-12.53,32.5l-26.1,40.21h0l-1.78,2.81-10.22-2.81-7.18-26.81.42-7.77v-1s16.11-16.89,19.71-18.16c0,0,2.82.34,8.17-12.75s10.25-15.91,10.25-15.91l2.81-9.46,30.22-48.13s25.34-36.29,32.24-20.19S1920.23,662.13,1920.23,662.13Z"/><path class="cls-16" d="M1819.2,1029.37a5.74,5.74,0,0,1-.82,2.48c-2.81,4.11-18.67,87.77-18.67,87.77,1.27,5.63-2.3,16.9-4.61,22s-7.44,31.71-7.44,31.71-1.26,57.33-4.56,66.28,1,28.16,1,28.16c-.31,8.81,5,18.16,8.14,22.89l.62.91c1,1.46,1.69,2.3,1.69,2.3a13.73,13.73,0,0,0,3.58,4.43l.73.56a41.18,41.18,0,0,0,14.33,6h.51c2,.45,3.38.65,3.38.65l1.26,6.93-13.54,2.81L1779,1317.1s-30.47,2.33-23.54-11.27a22,22,0,0,0,1.24-2.81h0a21.16,21.16,0,0,0,.7-2c4.17-13,1.35-28.89,1.35-28.89l-5.88-46.29c-9.72-43,7.63-90.84,7.63-90.84s-1.49-3.83,1.83-13.55,0-31,0-31-1.77-27.37-4.08-40.92a83.08,83.08,0,0,1-.93-17.26,85.24,85.24,0,0,1,.93-10.08l58.31-7.74S1819.9,1023.94,1819.2,1029.37Z"/><path class="cls-9" d="M1818.38,1312.56l-13.54,2.82-25.85,1.77s-30.47,2.34-23.54-11.26a22.12,22.12,0,0,0,1.24-2.82h0a21,21,0,0,0,.7-2,47.88,47.88,0,0,1,15.43,3.09c8.68,3.35,15.21-5.37,15.21-5.37l4.22-8.06.62-1.15c1,1.46,1.69,2.31,1.69,2.31a14.07,14.07,0,0,0,4.31,5l-.73,1.49-4.08,8.62s5.23.53,12.38,1.69a5.63,5.63,0,0,0,6.76-3.69h.51c2,.45,3.38.65,3.38.65Z"/><path class="cls-17" d="M1830.91,1318.93c-1,4.62-29.53,6-29.53,6s-15.89-1.52-20.33,2.17-17.55,2.82-18,2.82-7.41-.26-10.11-12.65,3.52-14.08,3.8-14.27h0a46.84,46.84,0,0,1,16.13,3.12c8.68,3.35,15.21-5.38,15.21-5.38l4.84-9.2c1,1.46,1.69,2.31,1.69,2.31a14.15,14.15,0,0,0,4.31,5l-4.81,10.11s5.23.53,12.38,1.66a6,6,0,0,0,7.12-4.47,5.67,5.67,0,0,0,.15-1.16c0-.25,0-.51,0-.76,0,0,4.45,1.29,10,2.81A10.28,10.28,0,0,1,1830.91,1318.93Z"/><path class="cls-16" d="M1884.67,1090.36c-.68,4.09-1.38,14.67-1.38,14.67,2.39,8.87-3.75,29.94-3.75,29.94l-3.06,12c1.35,15.35-8.45,52.88-8.45,52.88s-6.56,34.81-10,49.81a41.2,41.2,0,0,0,1.77,25.09l.26.62a5,5,0,0,0,.19.85,10.08,10.08,0,0,0,.4,1.21,18,18,0,0,0,3.35,5.63,16.34,16.34,0,0,0,1.83,1.89h0a37.29,37.29,0,0,0,10.87,6.7h0l1.72.67a51.67,51.67,0,0,0,5.43,1.69h.62l-1.38,8.06-18.08-4.65-24.21-7.85-11.75-6.59a7.45,7.45,0,0,1,.37-1.89.88.88,0,0,0,0-.23,12.32,12.32,0,0,1,.37-1.88c1.85-10.56,6.47-40.1,4.16-62-2.81-27,8.45-64.15,11.07-73a44.25,44.25,0,0,0,2.06-15.71c-4.45-6.48-5.47-32.41-5.47-32.41s-8.19-16.73-15-34.47a88.41,88.41,0,0,1-4.87-17.93,61.21,61.21,0,0,1-1-13.1s54.94-50.15,61-1.6c.19,1.66.39,3.21.59,4.76C1887.74,1078.23,1885.32,1086.39,1884.67,1090.36Z"/><path class="cls-9" d="M1884.67,1294.26l-1.38,8-18.08-4.64-24.21-7.86-11.92-6.81a7.45,7.45,0,0,1,.37-1.89.88.88,0,0,0,0-.23,12.32,12.32,0,0,1,.37-1.88h1.69a22.14,22.14,0,0,1,10.13,1.38c3.95,1.46,9.13,3.15,10.17,2.45a12.82,12.82,0,0,1,5.8-1l2.51-5.63.39-.84a17.68,17.68,0,0,0,3.35,5.63,21.53,21.53,0,0,0,1.94,2v1.94l-.14,2.82a35.37,35.37,0,0,0,8.7,4,5.25,5.25,0,0,0,2.43,0h0l1.71.67a51.84,51.84,0,0,0,5.44,1.69h0Z"/><path class="cls-17" d="M1875.6,1311.52c-5-1.43-17.2-3.77-19.17-2s-18.84,0-18.84,0a10.24,10.24,0,0,1-8.7-5.1c-3.52-5.46-.68-23.11-.68-23.11h1.24l2.08-.23h0a22.59,22.59,0,0,1,10.14,1.35c3.94,1.49,9.12,3.18,10.17,2.48a12.55,12.55,0,0,1,5.8-1l2.81-6.34a18.05,18.05,0,0,0,3.35,5.63,17.28,17.28,0,0,0,2,2l-.26,4.71a36,36,0,0,0,8.7,4,3.51,3.51,0,0,0,4.17-1.32,3.11,3.11,0,0,0,.31-.7h0a31.08,31.08,0,0,0,7.15,2.36h0a13.06,13.06,0,0,1,14.08,10C1902.58,1312.11,1880.64,1313,1875.6,1311.52Z"/><path class="cls-9" d="M1819.2,1029.37l-3.12,1a45.09,45.09,0,0,1-7.52,1.58c-16.17,2.28-42.78.9-51.22.36a85.24,85.24,0,0,1,.93-10.08l58.31-7.74S1819.9,1023.94,1819.2,1029.37Z"/><path class="cls-17" d="M1870.08,1015.21s-21.4,3.32-38.83,7.12c-5.8,1.27-11.26,2.62-15.17,3.89a46.18,46.18,0,0,1-7.52,1.6c-19.4,2.82-53.87.2-53.87.2-9.46-30.69,11.49-69.35,11.49-69.35-.48-3.07,4.36-12.51,4.36-12.51v-.31l3-11h79.55l1,4.7,2,9.58,12.5,59.33Z"/><path class="cls-9" d="M1882.42,1033.82l-.48.2-9.32,4.14c-10.08,4.64-40.24,5.63-50.69,5.63a60.52,60.52,0,0,1-1-13.09s54.93-50.16,61-1.61C1882,1030.72,1882.22,1032.38,1882.42,1033.82Z"/><path class="cls-17" d="M1883.88,1029.06l-1.94.87-9.32,4.14c-10.25,4.73-41.4,5.64-51.36,5.64h-2.62c-4.59-.14-9.21-4.45-9.21-5.64,0-.62-.48-3.66-.87-6.25-.37-2.08-.65-3.88-.65-3.88a246.08,246.08,0,0,1-31-16c-7.8-5.32-5.82-43.13-4.33-62.14.53-6.56,1-10.87,1-10.87l80.54,4.7,11.26.65,6.45,1.44,1.71.36s4.65,33.79,6.93,36.61.79,12.28.51,17.68a32,32,0,0,1-.76,6.9s3.32,9.46,2.56,14.76A29.54,29.54,0,0,0,1883.88,1029.06Z"/><circle class="cls-16" cx="1797.66" cy="715.63" r="33"/><path class="cls-16" d="M1781.55,729.37s2.28,31.26-4.11,38.44a289.83,289.83,0,0,1-23,20.72l5.12,21.23,28.92,3.33L1822.24,777l-7.69-9.32s-5.88-20-1-29.93S1781.55,729.37,1781.55,729.37Z"/><path class="cls-9" d="M1851.39,798.05h0l-1.78,2.81-10.22-2.81-7.18-26.81.42-7.77,2.11-3s11.27.25,10.79,10.5C1845.05,779.89,1850.18,794.64,1851.39,798.05Z"/><path class="cls-9" d="M1873.63,946.16s-8.14,1.81-17.46,3-20.07,1.85-24.5-.74c-7.4-4.39-47.53-3.12-59.13-2.67h-2l3-10.95h79.54l1,4.7,11.26.65,6.45,1.43C1873,944.36,1873.63,946.16,1873.63,946.16Z"/><path class="cls-18" d="M1832.72,762.43s11.26.25,10.75,10.5,6.14,27.88,6.14,27.88l-2.56,5.88s-3.58,14.34-.76,17.91,13,3.58,7.15,33c0,0-1.27,22,1.8,29.18s3.07,24.3,7.66,31.48a170.06,170.06,0,0,1,10.76,23.79s-33.26,7.41-42,2.31-62.17-2.56-62.17-2.56.25-9,0-10a8.27,8.27,0,0,1,1.27-6.5c1.8-2.45,4.61-6.54,3.07-10.11s3.82-8.87,1-14.42-6.22-6.64-5.63-9.69a13.06,13.06,0,0,0-3.16-9.68c-2-2.56-15.85-29.6-15.85-29.6l-2.31-12.61s-17.8-13-17.46-19.18,6.73-14.67,6.73-14.67l17.12-16.89s9.49,10.22,18.7,6.64,29-20.72,29-20.72,7.07-3.83,7.58-6.65,4.87-.25,4.87-.25,6.39-3.52,7.66-2.28a22.59,22.59,0,0,0,6.93,2.28Z"/><path class="cls-16" d="M1736,815.73l-5.43,4.28a72.06,72.06,0,0,0-6.85,27.88,368.3,368.3,0,0,1-6.89,43.19l-10.76,19.24s-17.66,37.08-20,46.94-12.78,26.49-12.78,26.49-35.56,32-10.76,37.74,25.6-25.35,25.6-25.35,5.63-6.39,6.73-10.75,32.41-60,32.41-60,11-15,8.7-22.92c0,0,14.33-33.79,14.33-42.24a147.6,147.6,0,0,0-2.3-21.06l2.3-17.66Z"/><path class="cls-9" d="M1809.68,886.27s-25.06,13.12-29.93,13.83,21.23-2.82,21.23-2.82Z"/><path class="cls-9" d="M1830.13,896.49s-33.26,11.26-47.87,9.24C1782.26,905.67,1818.64,912.63,1830.13,896.49Z"/><path class="cls-9" d="M1832.21,900.18s-30,18.84-47.59,15.77c0,0,41.2,8.19,47.59,3.83l-18.42-5.1S1834.24,903.84,1832.21,900.18Z"/><path class="cls-9" d="M1797.72,657.54a31.14,31.14,0,0,0-25.35,4.76c-5.12,4-8.44,10.19-14.3,13.2a77.41,77.41,0,0,1-9.35,3.3,27,27,0,0,0-16.47,29.06c.9,5.07,3.26,9.74,4.45,14.75,2.08,8.93.22,18.28-2,27.17a286.3,286.3,0,0,1-28.44,70.54,7.48,7.48,0,0,0-1.41,4.73,7,7,0,0,0,1.75,3c11.82,13.65,31,18.36,49.13,19a38,38,0,0,0,19.49-3.23,29.7,29.7,0,0,0,9.49-8.7,46.25,46.25,0,0,0,8.84-29.74c-.48-8.59-3.35-17.26-1.18-25.57a6.44,6.44,0,0,1,1.52-3.12c1.94-2,5.18-1.47,7.94-1.81,7.52-.87,12.36-8.78,13.26-16.3s-1-15.06-1-22.53a47.44,47.44,0,0,1,8.93-27.85c2.5-3.43,5.63-6.81,6.53-11.12,1.07-5.4-2.06-9.38-4.76-13.63-4.2-6.64-6.25-14.39-12.64-19.45A34.13,34.13,0,0,0,1797.72,657.54Z"/><path class="cls-19" d="M1795.66,655.48a31,31,0,0,0-25.17,4.76c-5.13,4.06-8.45,10.22-14.34,13.23a80.85,80.85,0,0,1-9.35,3.27,27,27,0,0,0-16.47,29c.9,5.07,3.27,9.75,4.45,14.76,2.08,8.93.25,18.27-2,27.17a285.79,285.79,0,0,1-28.41,70.4,7.23,7.23,0,0,0-1.41,4.73,6.55,6.55,0,0,0,1.72,3c11.83,13.69,31,18.36,49.14,19a38.14,38.14,0,0,0,19.48-3.21,29.79,29.79,0,0,0,9.49-8.73,46.27,46.27,0,0,0,8.82-29.73c-.51-8.45-3.38-17.26-1.21-25.57a7,7,0,0,1,1.52-3.13c2-2,5.18-1.46,8-1.77,7.49-.87,12.33-8.81,13.23-16.3s-1-15.07-1-22.53A47.13,47.13,0,0,1,1821,706c2.48-3.47,5.63-6.84,6.54-11.27,1-5.4-2.09-9.34-4.79-13.62-4.2-6.62-6.25-14.39-12.64-19.46A34.22,34.22,0,0,0,1795.66,655.48Z"/><path class="cls-9" d="M1784.62,975.39s6.56,30.72,17.49,39.06Z"/><g class="cls-2"><path d="M1732.27,712.67c-.33-1.18-.73-2.39-1.15-3.57C1731.57,710.31,1731.85,711.38,1732.27,712.67Z"/><path d="M1825.62,686a11.09,11.09,0,0,1,0,2.82c-.84,4.31-4,7.69-6.53,11.12a47.58,47.58,0,0,0-8.93,27.85c0,7.58,1.92,15.12,1,22.53s-5.64,15.43-13.24,16.27c-2.81.34-6-.19-7.94,1.81a7.07,7.07,0,0,0-1.55,3.12c-2.17,8.31.73,16.9,1.21,25.57a46.27,46.27,0,0,1-9,29.71,29.27,29.27,0,0,1-9.49,8.7,37.86,37.86,0,0,1-19.46,3.24c-17.77-.6-36.61-5.19-48.54-18.34a4.69,4.69,0,0,0-.29,2.48,6.58,6.58,0,0,0,1.72,3c11.83,13.68,31,18.36,49.14,19a38,38,0,0,0,19.48-3.21,29.87,29.87,0,0,0,9.49-8.72,46.25,46.25,0,0,0,8.82-29.74c-.51-8.45-3.38-17.26-1.21-25.57a7.07,7.07,0,0,1,1.52-3.12c2-2,5.18-1.47,8-1.78,7.49-.87,12.33-8.81,13.23-16.3s-1-15.07-1-22.53a47.18,47.18,0,0,1,8.92-27.82c2.48-3.46,5.63-6.84,6.54-11.26A12.7,12.7,0,0,0,1825.62,686Z"/></g><path class="cls-20" d="M461.14,1380.06c8.14,4.81,20.86,7.94,36.89-2.39l-.17,22.83c1.15,15.69,20.5,72.74,20.5,72.74l13.65,47a367.19,367.19,0,0,1,15,102.14,97.82,97.82,0,0,0,4.36,32.15c7.27,19.71-2.81,45.06-7.26,54.43a226.54,226.54,0,0,1-22.53,6.34,15.71,15.71,0,0,0-2,.62v-.14s-20.5,8.14-29.63,7c-6.78-.84-11,7.63-5.63,13.85a41.57,41.57,0,0,1-13.66,1.81c-9.12-1.13-13.65,14.55,3.41,19s113.93,0,113.93,0a13.74,13.74,0,0,0,7.29-15.18c7.44-.28,12.08-.5,12.08-.5s17.1-7.83,0-29.09l-.9.7-3.66-10.75v-14.56s21.66-104.19,14.81-116.35-10.25-75-10.25-75l2.28-68.26c6.17-12.75,9.35-32.72,11-48.35a102.94,102.94,0,0,0,4.36-23c.26-3.66.48-7.51.62-11.51a77.33,77.33,0,0,0-4.14-25.77,255.48,255.48,0,0,1,25.8-32.41,33.24,33.24,0,0,0,10.25-29.09l-5.64-38-13.68-64.76c1.72-18-2-28.39-6.2-34.24,1-5.8,1.92-11.63,2.62-17.46a223.16,223.16,0,0,0-4-76c-2-8.7-4.67-17.63-10.75-24.22-6.93-7.46-18.14-12-20.7-21.79a68.17,68.17,0,0,0-1.58-7.35c-2.5-6.42-10.41-8.73-17.34-9.58-12.33-1.49-30.16-2.64-42,2.2-8.25,3.41-19.71,12.7-24.19,22.7a19.46,19.46,0,0,0-2.82,14.08,18.48,18.48,0,0,0,2,4.75,42.82,42.82,0,0,0-2.81,15,43.68,43.68,0,0,0,27.87,40.5c.26.84.51,1.69.74,2.53a41.88,41.88,0,0,1,1.09,6.08c-.19,4-.45,7.94-.64,11.89a13,13,0,0,1-.43,1.6,293,293,0,0,0-28.63,14.61c6.84,10.06-1.13,52.58-1.13,52.58-17.09,10.08-34.18,35.81-16,62.65s8,55.61,8,55.61l-2.81,43.76h0l-.56,8.73h.22l-.22,3.32h.47v3.58c-8,2.82-19.71,8.84-26.66,19.71a70.65,70.65,0,0,1-11.94,14.64,8.78,8.78,0,0,0,1.38,14.59Zm137.55-116.24a41.54,41.54,0,0,1,4.06-22h8c.28,1.89.59,3.69,1,5.32,2.31,10-6.93,14.67-13.1,16.67Z"/><path class="cls-21" d="M601,1697.49l4.39,13.15-14.19,14.25L544,1735.84l-34-3.29,2.2-12h0A14.51,14.51,0,0,1,523,1709.88c14.08-3.29,40.61-10.76,46.21-21.17Z"/><path class="cls-9" d="M601,1697.49l4.39,13.15-14.19,14.25L544,1735.84l-34-3.29,2.2-12h0A14.51,14.51,0,0,1,523,1709.88c14.08-3.29,40.61-10.76,46.21-21.17Z"/><path class="cls-22" d="M520.92,1729.28l6.59-8.78-6.59-10.14s-19.71,7.94-28.5,6.84-13.15,14.28,3.3,18.64,109.62,0,109.62,0,16.44-7.66,0-28.49l-14.19,11s-24.14,13.18-36.19,11Z"/><path class="cls-21" d="M491.32,1747.92l34,3.27,47.14-11L586.7,1726l-1.16-3.49-1.63-4.9-1.58-4.76-31.79-8.79a19.59,19.59,0,0,1-6.45,6.48c-10.33,7-28.89,12.14-39.76,14.7l-1.38.39a14.56,14.56,0,0,0-5.63,3.41,14.39,14.39,0,0,0-3.91,6.81Z"/><path class="cls-9" d="M491.32,1747.92l34,3.27,47.14-11L586.7,1726l-1.16-3.49-13.09,10s-24.1,13.18-36.18,11h-34l6.56-8.78-5.92-9.13a14.56,14.56,0,0,0-5.63,3.41,14.39,14.39,0,0,0-3.91,6.81Z"/><path class="cls-22" d="M502.31,1744.63l6.56-8.79-6.56-10.13s-19.72,7.94-28.53,6.84-13.15,14.28,3.3,18.64,109.62,0,109.62,0,16.44-7.66,0-28.5l-14.25,10.84s-24.1,13.18-36.18,11Z"/><path class="cls-21" d="M529.7,1108.81s52.63,5.46,45.06-16.45a39.7,39.7,0,0,1-1.63-19.37,53.72,53.72,0,0,1,9.32-22.3l-49.34,7.69a62.27,62.27,0,0,1,6.68,15.82C545.56,1097.46,529.7,1108.81,529.7,1108.81Z"/><path class="cls-23" d="M619.59,1358.74s-1.1,47.14-12.06,70.17l-2.3,66.85s3.29,61.39,9.85,73.47-14.25,114-14.25,114v17.52s-35.05,13.18-45.05-2.17l10-130.46-4.3-181Z"/><path class="cls-9" d="M619.59,1358.74s-1.1,47.14-12.06,70.17l-2.3,66.85s3.29,61.39,9.85,73.47-14.25,114-14.25,114v17.52s-35.05,13.18-45.05-2.17l10-130.46-4.3-181Z"/><path class="cls-24" d="M641.52,1207.45l6.56,17.54,5.49,37.28a33,33,0,0,1-9.85,28.5c-13.15,13.15-30.69,40.57-30.69,40.57l-20.84-62.42s20.84-3.3,17.54-17.55-2.2-40.57-2.2-40.57Z"/><path class="cls-11" d="M641.52,1207.45l6.56,17.54,5.49,37.28a33,33,0,0,1-9.85,28.5c-13.15,13.15-30.69,40.57-30.69,40.57l-20.84-62.42s20.84-3.3,17.54-17.55-2.2-40.57-2.2-40.57Z"/><path class="cls-9" d="M544.09,1710.53c14.08,22.13,35.93,9.57,39.82,7.07l-1.58-4.76-31.79-8.79A19.59,19.59,0,0,1,544.09,1710.53Z"/><path class="cls-23" d="M500.11,1401.49c1.1,15.34,19.71,71.27,19.71,71.27l13.15,46a364.86,364.86,0,0,1,14.45,100.07,98.58,98.58,0,0,0,4.3,31.51c8.79,24.11-8.75,57-8.75,57,15.34,27.4,41.64,8.78,41.64,8.78v-17.54s20.84-95.37,15.35-114-7.66-69.08-7.66-69.08v-91a103.38,103.38,0,0,0,30-65.5c.28-3.57.48-7.34.62-11.26.9-24.75-16-53.73-22.53-64.09-1.57-2.48-2.56-3.88-2.56-3.88l-96.92,38.4h-.23v12.06Z"/><path class="cls-9" d="M533,1058.38a62.24,62.24,0,0,1,6.67,15.82A42.67,42.67,0,0,0,573,1073a54,54,0,0,1,9.32-22.3Z"/><circle class="cls-21" cx="554.91" cy="1032.08" r="42.74"/><path class="cls-9" d="M500.11,1330.25h.45c46,9.43,103.68-38.47,103.68-38.47a58.71,58.71,0,0,1-4-8.16c-1.58-2.48-2.56-3.89-2.56-3.89l-96.81,38.46-.25,3.83Z"/><path class="cls-24" d="M512.3,1107.71s61.39-37.28,81.13-21.94l27.4,35.09s17.54,5.46,14.24,40.55L648.22,1225l-39.42,9.88s-23.29,21.91-4.56,53.76c0,0-58.09,48.23-104.19,38.38l3.27-51.53s9.88-28.5-7.66-54.8-1.1-51.53,15.35-61.41C511.06,1159.1,518.75,1117.56,512.3,1107.71Z"/><path class="cls-21" d="M508.87,1331.34s-23,4.37-34,21.91a67.78,67.78,0,0,1-11.46,14.34,8.71,8.71,0,0,0,1.35,13.88c8.7,5.21,22.89,8.44,40.8-6.28C536.27,1350,508.87,1331.34,508.87,1331.34Z"/><path class="cls-9" d="M542.85,1128.52s21.94-2.2,27.4,54.82,14.25,70.17,14.25,70.17,5.49,29.6-7.66,47.14-38.38,54.8-38.38,54.8-27.4,7.69-32.89-19.71l34-63.58s5.49-21.91-7.66-37.26S508.87,1117.56,542.85,1128.52Z"/><path class="cls-24" d="M540.66,1125.31s21.93-2.2,27.4,54.79,14.27,70.18,14.27,70.18,5.47,29.59-7.68,47.13-38.38,54.8-38.38,54.8-27.4,7.69-32.89-19.71l34-63.58s5.49-21.94-7.66-37.28S506.67,1114.27,540.66,1125.31Z"/><path class="cls-9" d="M522.58,1166.34s-2.2,34,7.66,52.62,9.88,42.75,0,55.93"/><path class="cls-9" d="M517.09,1124.69s8.78-8.76,34-9.86,36.18-8.78,36.18-8.78"/><path class="cls-9" d="M578.08,976.8c6.65.82,14.28,3.1,16.67,9.38a70.47,70.47,0,0,1,1.52,7.21c2.48,9.57,13.26,14.07,19.91,21.37,5.88,6.45,8.45,15.2,10.36,23.71A223,223,0,0,1,630.4,1113c-2.14,18.19-6.5,36.1-7.74,54.34s1,37.48,11,52.83c4.28,6.59,9.94,12.39,13,19.71-6.28,5.1-15,5.83-23,6.11q-14.07.45-28.16,0a30.16,30.16,0,0,1-14.38-3,22,22,0,0,1-7.55-8.11c-5.38-9.16-6.76-20.14-6.53-30.78s1.91-21.18,2.11-31.79c0-5.8-.34-11.94-3.66-16.67a53.5,53.5,0,0,0-9.21-8.45c-11.71-10.39-15.74-27.09-16.13-42.75s2.16-31.36.84-47c-.51-6.11-2.82-13.46-8.81-14.64a38.19,38.19,0,0,1-5.64-.74c-4.84-1.86-4.36-8.67-5.63-13.65-1.55-5.64-6.3-9.92-7.66-15.58C510.05,999.55,526.92,983.73,538,979S566.2,975.34,578.08,976.8Z"/><path class="cls-25" d="M579.18,974.6c6.64.85,14.25,3.13,16.67,9.38a68.43,68.43,0,0,1,1.52,7.24c2.48,9.57,13.26,14.08,19.91,21.34,5.88,6.45,8.45,15.21,10.36,23.71a223,223,0,0,1,3.86,74.48c-2.14,18.19-6.51,36.1-7.75,54.35s1,37.48,11,52.82c4.28,6.59,9.94,12.39,13,19.71-6.28,5.1-15,5.83-23,6.11q-14.07.45-28.3,0a30.08,30.08,0,0,1-14.39-3,22.07,22.07,0,0,1-7.54-8.08c-5.41-9.18-6.76-20.16-6.54-30.81s1.92-21.17,2.12-31.79c0-5.77-.34-11.94-3.66-16.67a55.51,55.51,0,0,0-9.21-8.45c-11.72-10.39-15.77-27.06-16.17-42.74s2.2-31.37.88-47c-.51-6.11-2.82-13.46-8.82-14.64a39.6,39.6,0,0,1-5.63-.73c-4.84-1.86-4.36-8.68-5.63-13.66-1.55-5.63-6.31-9.91-7.66-15.57-3.15-13.24,13.71-29.09,24.78-33.79S567.3,973.25,579.18,974.6Z"/><ellipse class="cls-26" cx="1752.18" cy="1780.05" rx="64.74" ry="7.24"/><ellipse class="cls-26" cx="1449.56" cy="1988.26" rx="64.74" ry="7.24"/><ellipse class="cls-26" cx="1313.13" cy="2117.93" rx="64.74" ry="7.24"/></g><g id="cbb92aef-a4c8-4910-9d60-405154a20c92"><ellipse class="cls-1" cx="2090.42" cy="2590.98" rx="286.35" ry="79.89"/><path class="cls-27" d="M2477.3,1653.35c1.4-3.69-9-24.83-9-25.86s-10.75-12.75-10.75-19.29-14.23-20.7-14.23-20.7-19.1-7.9-21.17-25.16-22.87-17.55-22.91-17.55h0v-4a54.5,54.5,0,0,0-2.55-20.13,20.26,20.26,0,0,0-11.79-10s-2.1-13.45-6.24-17.59a19.73,19.73,0,0,1-4.88-18.47c2.11-6.51-2.77-23.06-12.82-25.5s-21.55-6.21-21.55-6.21l-2.77.48-1.36-.48a57.4,57.4,0,0,1-7.39.93,9.12,9.12,0,0,1-5.88-1.93c-3.47-3.69-31.59-11.08-36.95-11.08s-20.14-6.91-20.14-6.91-10.42-7.91-14.78-11.38-11.94-16.08-13.08-18v-.26h0a64.14,64.14,0,0,1-3.14-9h0a81.33,81.33,0,0,0,12.89-17.77c.37-.67.71-1.33,1-2a7.81,7.81,0,0,0,2.25-.33l.93-.37a15,15,0,0,0,7.39-8.79h0a23,23,0,0,0,.66-2.29v-.78l.33-1.55c0-.3,0-.59,0-.89l.23-1.55V1348a5.13,5.13,0,0,1,.26-2h0a68.5,68.5,0,0,1,1.07-7.39h0c2.07-9.34,7.72-17.25,11.67-25.86h0c.56-1.22,1.11-2.48,1.59-3.7s1-2.77,1.37-4.17l.33-1.3c.26-1,.48-2.07.7-3.1s0-.92.26-1.4c.22-1.41.41-2.85.56-4.33a53.38,53.38,0,0,0-3.7-24.2c-2.58-6.47-6.46-12.31-9.09-18.77-4-9.79-5.06-20.92-9.9-30.27a36,36,0,0,0-43.23-17.58c-7.39,2.8-14.12,8.24-21.77,10.67-10.27,3.29-21.21.82-31.85-.62s-22.17-1.63-30.89,5.32c-9.83,8-12.49,23-21.73,31.74-3.7,3.69-8.68,6-12.79,9.42a20.94,20.94,0,0,0-6.43,8.8l-.22.7a7.24,7.24,0,0,0-.22.92,9,9,0,0,0-.18,1,4.09,4.09,0,0,0,0,.7,7.16,7.16,0,0,0,0,1.85h0a14.42,14.42,0,0,0,.25,1.73v.48a4.21,4.21,0,0,0,.45,1.44c.18.48,0,.19,0,.26s.4,1.07.63,1.59l.33.78a.63.63,0,0,0,.29.63,46.23,46.23,0,0,1,3.22,8,8.93,8.93,0,0,1-.33,5.29,15.68,15.68,0,0,1-3.7,5.06,71.66,71.66,0,0,0-15.67,25.09c-.41,1.09-.78,2.16-1.11,3.22h.49a20.6,20.6,0,0,0,3,.62,12.49,12.49,0,0,0,1.73,0,27.3,27.3,0,0,0,7.1-.51l1.77-.45a39.8,39.8,0,0,0,7-2.55v3.29a82,82,0,0,0,45.56,73.31,15.37,15.37,0,0,0,.3,2.22l.22,1.89-.92-.89s-6.25-3.1-12.16,5.84a39.25,39.25,0,0,1-17,13.12s-63.19,10-65.63,18.25l-29.56,1.74s-10.42,1.36-11.45,23.09-6.58,23.76-6.58,23.76-12.16,21.4-11.08,32.41a18.07,18.07,0,0,1-9.39,16.55l-1.37,19.66s-11.45-1.74-14.78,11.71a46.78,46.78,0,0,1-8.64,19.63s-19.11,15.88-20.14,29.3l-11.83,7.39s-27.42-6.21-33.66-17.22c0,0-.74-.74-1.92-1.81v-.26h0c-4.1-3.7-12.79-12-11.46-10.09a8.28,8.28,0,0,1,.56,5.54l-2-2.25-5.46-6.06s-44.35-41.53-70.21-44.82h0c-.33-.67-2-7.39-6.47-3.14a36.2,36.2,0,0,0-2.17,51.16c.61.67,1.25,1.32,1.91,1.94l41.54,38.76,1.07.78,8.9,11.45a104.46,104.46,0,0,0-3.69,10.27v.34l-.67,2a3.9,3.9,0,0,0-.18.67c-.22.66-.41,1.29-.59,1.92l-.34,1.11v.66c-1,3.47-1.62,6.14-1.92,7.61l-2.33-.74,2.26,1v1.07l2.14.93c12.16,5.28,72.83,31.92,75.94,36s26.38,17.59,47.22,6.54,25.31-27.9,25.31-27.9,20.14-27.93,20.84-32.07,16.3-8.94,16.3-8.94,1.4,46.15-6.58,63.07-22.91,91.68-22.91,91.68a10.48,10.48,0,0,1,3,0l-.89,4.32a10.45,10.45,0,0,1,3.7,0c-1.11,8.5-7.39,48-7.39,48s-2.07,17.92-5.55,24.13-3.69,38.62-3.69,38.62l-5.58,23.42s.74,1.63,2.11,4h0a60.06,60.06,0,0,0,16,20.66,41,41,0,0,1-2.81,10.71,37.69,37.69,0,0,0-2.77,16.56s-5.88,26.53-5.21,34.1-3.7,26.2-3.7,26.2l-6.24,60s-4.14,52-2.07,66.19a127.3,127.3,0,0,1-1.4,33.25s4.17,41,3.14,45.49-6.25,23.8-3.14,34.48,1.4,40,1.4,40,2.07,38.61,4.51,51a87.66,87.66,0,0,1-.7,28.27s-2.44,26.53-3.48,26.53-10,18.25,8.32,36.17,7,15.15,7,15.15-14.78-7.39-12.86,7.61c1.63,14.08,3.92,10.42,4.14,10l-3.47,11.34,2.43.34-2,2.4a52.19,52.19,0,0,1-7,7.39,15.06,15.06,0,0,0-4.51,10s-25.68,27.94-49.63,42.06c-12.6,7.39-23.46,13.7-28.19,18.95-4.29,4.66-3.69,8.43,5.28,11.38,18.74,6.21,51.74,9.31,75.31,1.37a88.05,88.05,0,0,0,37-23.76s14.78-7.61,29.56-4.84,43.76-16.19,43.76-16.19l-.56-4.87-1.51-14.12a11,11,0,0,1-2.44-8.57,44.36,44.36,0,0,0-1.22-12.42c-.26-1.36-.52-2.73-.78-4l2.66-.52s-3.43-17.55,2.81-21,4.47-48.59,4.47-48.59-7.94-10.35-12.12-12-.37-23.13.37-25.86,6.25-56.21,6.25-56.21-2.11-16.85.66-24.09-3.47-35.18-3.47-35.18a6.42,6.42,0,0,1,1.73-7.57c3.7-4.14,2.44-41,2.44-41s-.33-18.48-.33-23.46,4.14-22.4,8-28.24,1.37-24.13,1.37-24.13h0l.22-1.36a5.08,5.08,0,0,1,.3-2l.29-1.85a271,271,0,0,1,6.8-29.93c4.51-14.45,9.72-39.94,9.72-39.94L2130,2020.8l.37-1s14.78,27.57,14.78,53.1c0,0,3.69,30.67,2.81,38.95s2.4,47.19,2.4,47.19,4.51,55.83,4.51,58.23,5.58,45.49,9,52.07-3.47,26.53-5.58,28.6.7,52.73.7,52.73-5.21,40-6.24,48.26-5.21,40-1.74,52.39,2.07,14.12,2.07,14.12,12.53,12.78,5.21,13.82a19.1,19.1,0,0,0-14.58,22.74,19.78,19.78,0,0,0,.69,2.39,333.28,333.28,0,0,0,15.29,37l5.77-1.22v4.1l.41,20.55s2.43,19.62,1,24.12c-1,3.26-2.4,18.7-3.07,26.79-.26,3-.4,4.92-.4,4.92s0,18.25,38.54,12.75,45.45-20.7,45.45-20.7l.29-1.88c.56-3.47,1.81-10.86,2.85-15,1.37-5.51-11.09-30.34-11.09-30.34s-2.07-16.89-5.54-20.66a18.4,18.4,0,0,1-2.81-7.39c-.29-1.4-.59-2.84-.81-4.25a25.5,25.5,0,0,1,2.59.45s-2.11-12,5.91-15.85,5.87-11.72,4.84-15.15,3.1-22.77,3.1-22.77a11.08,11.08,0,0,1,2.77-11.08c4.88-4.84,8.69-38.62,8.69-38.62l.7-130.29s2.44-23.09-.33-32.41-5.55-27.23-1.74-32.07.33-27.2.33-27.2,0-47.22,5.21-59.12,3.48-85.84,3.48-85.84l1.36-48.59s11.35-10.71,8.69-66.51c12.08-.78,25.86-1.22,27.79.48,3.69,3.1,28.45,19,43,8.94a192.46,192.46,0,0,0,17.33-13.41L2358,1840.62l6.13,9.57c0-14.44,41-61.34,41-61.34s38.17-49.29,46.49-55.13,24.65-37,24.65-37a149.3,149.3,0,0,1,8.35-17.22C2488.42,1673.68,2475.93,1657.12,2477.3,1653.35Zm-89.54,36.18c-10.42,1-32.29,24.83-32.63,30a21.23,21.23,0,0,1-4.61,9.24c0-2.07-.34-4.18-.52-6.32-2.44-30.48-5.1-67.58-3.7-71.17,2.07-6.21,1.37-34.14,1.37-34.14h0l.41-.56c7,21.66,28.71,47.16,28.71,47.16s3.69,11.08,8.35,11.34S2387.76,1689.53,2387.76,1689.53Z"/><path class="cls-28" d="M1831.27,1681.66s12.68-66.52,53.36-66.52l29.78,61.23L1894.57,1690S1851.45,1691.23,1831.27,1681.66Z"/><path class="cls-9" d="M1914.41,1676.19l-19.84,13.67s-30.34,1-52-4.36a59.71,59.71,0,0,1-11.27-3.7l.22-1.07v-.22a149.13,149.13,0,0,1,7.69-24.39c1.25-3,2.66-6.06,4.21-9.12,5.95-11.46,14.34-22.73,25.87-28.27a35.07,35.07,0,0,1,13.56-3.7h1.81l.66,1.37,10,20.69Z"/><path class="cls-28" d="M2252.37,1951.88s42.75-4.1,46.52-1,28.05,18.81,42.39,8.87,4.8-44.35,4.8-45.83-1.37-50.29-1.37-50.29l-25.64-34.55-32.15-60.52-65.7-6.51,1.7,96.08-.33,49.25Z"/><path class="cls-9" d="M2252.37,1951.88s42.75-4.1,46.52-1,28.05,18.81,42.39,8.87,4.8-44.35,4.8-45.83-1.37-50.29-1.37-50.29l-25.64-34.55-32.15-60.52-65.7-6.51,1.7,96.08-.33,49.25Z"/><path class="cls-29" d="M1876.09,1613.26s-3.43,41.72-29.56,42.42c0,0-7.39-4.43-17.29-11.86-22.84-17.11-59.12-50-49.07-80.52,14.37-43.79,84.14,37,84.14,37l5.39,6Z"/><path class="cls-9" d="M1876.09,1613.26s-3.43,41.72-29.56,42.42c0,0-7.39-4.43-17.29-11.86L1827,1641a34.11,34.11,0,0,0,14.26,3.7,19.26,19.26,0,0,0,18.48-11.72,147.27,147.27,0,0,0,7.39-16.59,51.57,51.57,0,0,0,2.62-10.23Z"/><path class="cls-30" d="M1864.79,1688.86l-5.84-7.39-19.7-25.35-10-13a33.6,33.6,0,0,0,14.22,3.7,19.15,19.15,0,0,0,18.48-11.72,146.3,146.3,0,0,0,7.21-16.55c3.25-9.24,3.17-14,2-15.59s7.39,6.2,11.31,10h0l1.88,1.77.7,1.41,10.31,20a6,6,0,0,1,0,.85C1896.12,1643.3,1899.45,1683.17,1864.79,1688.86Z"/><path class="cls-28" d="M2069.72,2569.2S2041,2588,2026.6,2585.27a51.72,51.72,0,0,0-29.08,4.81,86.41,86.41,0,0,1-36.25,23.61c-23.28,7.87-55.76,4.77-74.24-1.37-8.72-2.92-9.42-6.69-5.21-11.31s15.37-11.41,27.79-18.8c23.61-14.05,48.92-41.72,48.92-41.72a14.78,14.78,0,0,1,4.44-9.94,52,52,0,0,0,6.91-7.39c3.69-4.33,7.13-8.87,7.13-8.87l84.65,3.18s1.45,6.09,2.59,12.34a44.69,44.69,0,0,1,1.18,12.3,11.08,11.08,0,0,0,2.41,8.54l1.51,14Z"/><path class="cls-28" d="M2246.42,2592.92c-1,4.1-2.25,11.42-2.81,14.78a6.46,6.46,0,0,1-.25,1.89s-6.84,15-44.83,20.51-38-12.64-38-12.64l.37-4.92c.67-8,2-23.31,3-26.56,1.37-4.44-1-23.95-1-23.95l-.41-20.4-.3-14.15,62.82-6.5a122.3,122.3,0,0,0,2,14,18.06,18.06,0,0,0,2.78,7.39c3.4,3.7,5.46,20.51,5.46,20.51S2247.9,2587.45,2246.42,2592.92Z"/><path class="cls-9" d="M2061.66,2517.47s1.45,6.09,2.59,12.34c-9.13,1.66-49,8.57-59.12,3.69-11.31-5.46-35.59-8.53-35.59-8.53l.41-1.41c3.7-4.32,7.13-8.86,7.13-8.86Z"/><path class="cls-9" d="M2227.36,2535.09c-15.93-2.69-50.92,3.7-64.67,6.65l-.3-14.15,62.82-6.5A120.43,120.43,0,0,0,2227.36,2535.09Z"/><path class="cls-31" d="M2262.94,2016.55l-1.33,48s1.7,73.53-3.44,85-5.13,58.49-5.13,58.49,3.43,22.17-.34,27-1,22.58,1.7,31.82.34,32.15.34,32.15l-.67,129.33s-3.69,33.51-8.57,38.32a11.26,11.26,0,0,0-2.74,11.08s-4.1,19.14-3.06,22.58,3.06,11.27-4.77,15-5.84,15.74-5.84,15.74c-18.81-4.47-72.16,7.39-72.16,7.39a326.9,326.9,0,0,1-15.08-36.62,19,19,0,0,1,11.34-24.29,20,20,0,0,1,2.37-.69c7.17-1-5.14-13.67-5.14-13.67s1.37-1.7-2.07-14,.7-43.79,1.74-52,6.13-48,6.13-48-2.73-50.29-.66-52.32,8.87-21.92,5.47-28.38-8.91-49.26-8.91-51.74-4.43-57.83-4.43-57.83-4.1-38.65-3.07-46.85-2.77-38.65-2.77-38.65c0-25.31-14.78-52.69-14.78-52.69l-.37,1-31.78,84.11s-5.14,25.31-9.57,39.68a262.57,262.57,0,0,0-6.69,29.56l-.29,1.85-.3,1.92-.22,1.37h0s2.36,18.11-1.4,23.94a85.44,85.44,0,0,0-7.84,28c0,4.8.33,23.28.33,23.28s1.37,36.58-2.4,40.65a6.4,6.4,0,0,0-1.7,7.39s6.14,27.71,3.4,34.88-.66,23.94-.66,23.94-5.47,53-6.17,55.76-4.44,24-.34,25.65,12,12,12,12,1.7,44.82-4.44,48.22-2.77,20.88-2.77,20.88-49.59,9.57-60.86,4.1-35.58-8.53-35.58-8.53l3.4-11.09c-.23.41-2.48,4.07-4.07-9.94-1.74-14.78,12.64-7.39,12.64-7.39s11.31,2.73-6.84-15-9.24-35.92-8.2-35.92,3.4-26.34,3.4-26.34a87.15,87.15,0,0,0,.7-28.05c-2.4-12.3-4.43-50.62-4.43-50.62s1.7-29.08-1.41-39.69,2.07-29.56,3.11-34.22-3.11-45.15-3.11-45.15a127,127,0,0,0,1.41-33.26c-2.07-14,2-65.7,2-65.7l6.17-59.49s4.43-18.48,3.7-25.87,5.13-33.84,5.13-33.84a37.49,37.49,0,0,1,2.74-16.45c3.43-6.83,4.8-29.56,4.8-29.56l32.85-75.23,16.07-66.52L2256.7,1809s.77,5.76,2.1,16.22,3.18,25.86,5.25,45c1.88,17.37,3.95,37.8,6,60.53C2276.65,2003.54,2262.94,2016.55,2262.94,2016.55Z"/><path class="cls-29" d="M2242.73,1417.6l-50.59,54.13s-65-25.86-58.12-34.92c2.62-3.43,2.21-14.3.7-26.27-2.4-19-7.39-40.64-7.39-40.64s113.55-18.48,103.94.66a31.55,31.55,0,0,0-.7,22.73A86.05,86.05,0,0,0,2242.73,1417.6Z"/><path class="cls-9" d="M2231.12,1370.38c-3.47,7-5.13,7.68-2.95,15.22-14.78,15.93-33.74,33.26-57.24,33.26a81.09,81.09,0,0,1-36.21-8.5c-2.4-19-7.39-40.65-7.39-40.65S2240.73,1351.23,2231.12,1370.38Z"/><path class="cls-29" d="M2252.37,1335.49a81.42,81.42,0,1,1-162.84,0v-1.18a81.41,81.41,0,0,1,162.81,1.18h0Z"/><path class="cls-9" d="M2264.16,1872.59c-10.79,0-46.71.37-86.84,1h-.48l-13.26.22h-.41c-47.59.74-94.48-8.53-113.33-6.8-40,3.7,14.37-37,14.37-37a335.45,335.45,0,0,0,91.16,9.2l11.53-.59c36.36-2.07,72.91-5.47,92-11.08C2260.24,1838.11,2262.09,1853.48,2264.16,1872.59Z"/><path class="cls-32" d="M2264.16,1870.52c-10.79,0-46.71.4-86.84,1h-.48l-13.26.22h-.41c-47.59.78-94.48-8.53-113.33-6.76-40,3.7,14.37-37,14.37-37a333.84,333.84,0,0,0,91.16,9.2l11.53-.59c36.36-2,72.91-5.47,92-11.09C2260.24,1836,2262.09,1851.41,2264.16,1870.52Z"/><path class="cls-9" d="M2149.06,1440.18l-62.82,29.56-48.59,375.58s28.74-13,45.15-4.81,67,.7,67,.7,37-2.06,42.42,2.07,69.8-17.11,69.8-17.11,11.64-25.86,2.74-30.11,2.73-44.34,2.73-44.34l-5.47-270.93L2251,1445.91l-29.56-17.82-30.08,24-14.38,2.07Z"/><path class="cls-30" d="M2149.06,1436.08l-62.82,29.56-48.71,375.61s28.75-13,45.16-4.8,67,.7,67,.7,37-2.07,42.42,2,69.8-17.07,69.8-17.07,11.64-25.87,2.74-30.12,2.73-44.34,2.73-44.34l-5.47-270.93-11.08-34.88L2221.3,1424,2191.22,1448l-14.38,2.07Z"/><path class="cls-9" d="M2148,1453.52s18.14,21.54,17.81,25.86-1,15.08-1,15.08l-13.68,27.68s-7.39,34.55-7.39,41.75-12,69.43-12,69.43l-14.67,95.89L2099,1854.85l18.47,31.81,21.92-18.47,29.08-223.71,6.13-44.12s6.51-79.37,6.51-87.57a280.4,280.4,0,0,0-3.7-29.75s4.47-20.54,22.95-25.31-1.41-1-1.41-1l-10.57-8.53-9.23,3.69S2153.49,1444,2148,1453.52Z"/><path class="cls-5" d="M2146,1451.45s18.1,21.54,17.77,25.86-1,15-1,15l-13.67,27.72s-7.4,34.55-7.4,41.72-12,69.43-12,69.43L2115.36,1727l-18.15,125.63,18.48,31.82,21.87-18.48,29.08-223.7,6.18-44.12s6.5-79.38,6.5-87.58a278.38,278.38,0,0,0-3.7-29.78s4.44-20.51,22.91-25.31-1.36-1-1.36-1l-10.61-8.58-9.24,3.7S2151.46,1441.88,2146,1451.45Z"/><path class="cls-9" d="M2134,1415.53s-2.74,2.07-3.44,15.74-10.27,44.34-10.27,44.34,35.58-24.61,53.35-21.87Z"/><path class="cls-30" d="M2134,1411.43s-2.74,2.07-3.44,15.74-10.27,44.34-10.27,44.34,35.58-24.61,53.35-21.87Z"/><path class="cls-9" d="M2231.16,1404.59l-56.09,49.26s47.19,28.05,53.36,34.88,12.3-67,12.3-67Z"/><path class="cls-30" d="M2233.19,1400.49l-56.09,49.26s47.23,28,53.36,34.88,12.3-67,12.3-67Z"/><path class="cls-9" d="M2136.05,1415.53s-6.14-3.07-12,5.84a38.66,38.66,0,0,1-16.74,13s-62.27,9.94-64.67,18.14l-29.08,1.7s-10.27,1.37-11.09,23-6.5,23.57-6.5,23.57-12,21.21-11.08,32.15a18,18,0,0,1-9.24,16.45l42.75,111.15s1.37,45.85-6.5,62.59-22.58,91-22.58,91,6.17-1.36,5.8,2.74-7.39,48.92-7.39,48.92-2.07,17.78-5.47,24-3.69,38.28-3.69,38.28l-5.47,23.28s13,29.08,32.81,25,55.72-81.78,55.72-81.78l22.91-83.8,17.81-82.77,5.14-56.1,8.2-124.19,12-82.07S2140.85,1421.37,2136.05,1415.53Z"/><path class="cls-28" d="M2134,1411.43s-6.18-3.07-12,5.84a39,39,0,0,1-16.77,13s-62.27,9.94-64.67,18.14l-29,1.7s-10.27,1.37-11.31,22.91-6.5,23.61-6.5,23.61-12,21.21-11.09,32.15a17.9,17.9,0,0,1-9.24,16.44l42.9,111.3s1.37,45.86-6.5,62.6-22.58,91-22.58,91,6.17-1.37,5.84,2.74-7.39,48.88-7.39,48.88-2,17.81-5.47,24-3.69,38.32-3.69,38.32l-5.47,23.28s13,29.08,32.85,24.94,55.76-81.74,55.76-81.74l22.91-83.81,17.77-82.77,4.92-56.31,8.2-124.2,12-82.07S2138.78,1417.27,2134,1411.43Z"/><path class="cls-9" d="M1914.41,1676.19l-19.84,13.67s-30.34,1-52-4.36l-11.08-4.91-2.22-1,2.29.74a45.24,45.24,0,0,0,27.38,1c28.08-9.46,25-55.79,23.87-66.29a9.47,9.47,0,0,0-.22-2h0v.26a19.16,19.16,0,0,0,1.29,1.81l1.26,1.33h0l10.27,19.73a6,6,0,0,1,0,.85Z"/><path class="cls-28" d="M1983.14,1542.46l-9.57,2.73-1.37,19.48s-11.08-1.7-14.37,11.64a46.86,46.86,0,0,1-8.54,19.51s-18.8,15.74-19.84,29.08l-11.64,7.17s-27-6.17-33.26-17.11c0,0,12.35,88.24-53.35,66.51,0,0,73.53,32.15,77,36.62s25.86,17.44,46.52,6.5,25-27.71,25-27.71,19.84-27.71,20.51-31.81,16.07-8.91,16.07-8.91l29.56-71.13Z"/><path class="cls-9" d="M2223.29,1445.65l9.9-45.16s4.48,14.78,8.91,18.14l14.78,11.09s14.78,6.84,19.84,6.84,32.85,7.39,36.25,11.08,17.11,1,17.11,1,11.27,3.69,21.21,6.17,14.78,18.81,12.64,25.31a19.76,19.76,0,0,0,4.8,18.47c4.11,4.11,6.17,17.45,6.17,17.45a20,20,0,0,1,11.61,9.9c3.43,7.39,2.4,23.94,2.4,23.94l-51,71.84s.67,27.71-1.36,33.88,7.16,110.86,7.16,110.86l10.61,179.92a186.79,186.79,0,0,1-17.11,13.33c-3.07,1.37-6.13-63.63-6.13-66s-79-118.25-79-118.25-10.61-17.1-10.61-20.87-9.9-38.32-9.9-38.32l-15-66.52Z"/><path class="cls-28" d="M2393.08,1546V1550l-50.92,71.76h0s.71,27.71-1.36,33.89c-1.19,3.69,1.4,40.38,3.69,70.61,1.74,21.8,3.33,40.2,3.33,40.2l4.51,76.31,6.09,103.46a185.16,185.16,0,0,1-17.11,13.34c-3.06,1.37-6.13-63.63-6.13-66s-79-118.24-79-118.24-10.6-17.11-10.6-20.88-9.91-38.32-9.91-38.32l-15-66.51,6.84-203.87,5.8-45.15s8.57,14.78,13,18.1l14.78,11.31s14.78,6.84,19.84,6.84,32.85,7.39,36.25,11.08,17.11,1,17.11,1,11.31,3.69,21.21,6.17,14.78,18.81,12.64,25.31a19.8,19.8,0,0,0,4.8,18.48c4.1,4.1,6.17,17.44,6.17,17.44a20,20,0,0,1,11.61,9.9A55.54,55.54,0,0,1,2393.08,1546Z"/><path class="cls-9" d="M1974.94,2457.46c1.7,0,73.53,2.73,72.17,14.37S1974.94,2457.46,1974.94,2457.46Z"/><path class="cls-9" d="M1991,2476.82s48.22,7.87,35.59,15S1991,2476.82,1991,2476.82Z"/><path class="cls-9" d="M2170.27,2450s80,6.83,68.06,15.7-40.35,10.27-41.72,10.61S2170.27,2450,2170.27,2450Z"/><path class="cls-9" d="M2160.7,2485.17s44.34,7.39,45.82,16.08S2160.7,2485.17,2160.7,2485.17Z"/><path class="cls-9" d="M2185.3,2279.24s40.65,9.57,43.13,16.07Z"/><path class="cls-9" d="M2028.41,2308.65s-21.21,6.17-.67,18.48S2028.41,2308.65,2028.41,2308.65Z"/><path class="cls-9" d="M2122.38,1979.93c2.4,0,39.68-12.3,52.69-6.84a86.32,86.32,0,0,0,29,5.47Z"/><path class="cls-9" d="M2127.18,2018.91l-.37,3.4-31.89,83.52s-5.14,25.31-9.57,39.68a262.57,262.57,0,0,0-6.69,29.56l28.23-175Z"/><path class="cls-31" d="M2176.84,1871.55l-13.26.22h-.41l-7.8-34.47,11.53-.63Z"/><path class="cls-29" d="M2338.21,1829.8l-8.5,7-28.45,23.39s-76.93,41-98.14,2.07c-18.7-34.37,68.54-58.9,89.57-64.26l4.47-1.07Z"/><path class="cls-9" d="M2009.49,1493.54s15,6.83,18.47,16.4S2009.49,1493.54,2009.49,1493.54Z"/><path class="cls-9" d="M1963,1596.15s-21.88,26.68-13,36.95S1963,1596.15,1963,1596.15Z"/><path class="cls-9" d="M2354.28,1508.69s-20.5,2.07-21.21,19.84Z"/><path class="cls-9" d="M2164.09,1789.08c2.07-2.07,49.26-71.84,60.24-65.67Z"/><path class="cls-9" d="M2252.37,1335.49a81.28,81.28,0,0,1-9.64,38.43h-.59c-5.18-1.11-7.87-7.09-11.79-10.86a16,16,0,0,0-18.48-2.59,18.8,18.8,0,0,0-9.09,17.55c-2.58-11.08-1.77-22.61-4.32-33.58s-10.2-22.18-20.69-22.18c-4.51,0-9.8,1.67-13.05-1.73-2-2-2.36-5.25-3.69-7.72-7.39-12.16-30.3-6-39.61.22s-20.14,16.14-31.71,21.47a81.41,81.41,0,1,1,162.81,1.18Z"/><path class="cls-33" d="M2160.88,1310.55c1.48,2.48,1.88,5.69,3.69,7.76,3.26,3.36,8.54,1.63,13,1.7,10.49.19,18.18,11.31,20.69,22.17s1.74,22.62,4.36,33.55a18.46,18.46,0,0,1,9.06-17.51,16.06,16.06,0,0,1,18.47,2.55c3.92,3.69,6.62,9.79,11.79,10.86s10.12-3.88,12-9.31a142.34,142.34,0,0,0,3-17c2.32-10.65,9.31-19.4,13.15-29.57a53.56,53.56,0,0,0-.33-38.2c-2.59-6.43-6.39-12.2-9-18.48-4-9.72-5-20.73-9.79-30a35.48,35.48,0,0,0-42.61-17.52c-7.39,2.81-13.89,8.2-21.43,10.64-10.12,3.25-20.91.82-31.37-.66s-22.17-1.59-30.45,5.28c-9.68,8-12.34,22.84-21.43,31.52-3.7,3.7-8.57,6-12.6,9.35a17.37,17.37,0,0,0-7.06,13.89c.63,7.1,7.39,13.53,5,20.11a15.5,15.5,0,0,1-3.7,5,71.62,71.62,0,0,0-16.55,28.2c18.47,5.69,38.13-14.49,52.43-24C2130.58,1304.56,2153.38,1298.43,2160.88,1310.55Z"/><path class="cls-9" d="M2338.21,1829.8l-8.5,7c-7.39-12.53-38.35-37.51-38.35-37.51l1.33-1.29,4.47-1.07Z"/><path class="cls-30" d="M2346.41,1817.12s-3,7.61-6.2,14.19-6.62,12.56-6.77,7.72c-.37-9.6-40-41.75-40-41.75l5.35-5.25L2305,1786Z"/><path class="cls-9" d="M2347.78,1766.5l4.51,76.3c-10.64-16.51-39.8-58.86-58.53-57.49l45.49-52.33a60.26,60.26,0,0,0,5.21-6.69C2346.19,1748.1,2347.78,1766.5,2347.78,1766.5Z"/><path class="cls-9" d="M2346.41,1817.12s-3,7.61-6.2,14.19c-11.94-16.33-28.31-35.66-41.43-39.28L2305,1786Z"/><path class="cls-28" d="M2380.63,1540.39l12.31,9.57s20.54.37,22.57,17.44,20.88,25,20.88,25,14,14,14,20.55,10.6,18.1,10.6,19.14,10.27,21.87,8.91,25.64,11.08,20.18,7.16,26.35a158.9,158.9,0,0,0-8.2,17.11s-16.07,30.78-24.28,36.58-45.82,54.76-45.82,54.76-40.38,46.49-40.38,60.86c0,0-39.32-65.66-62.6-64l45.49-52.33s7.87-8.57,8.24-13.67,21.87-28.75,32.15-29.78c0,0,1.7-14-2.74-14.37s-8.2-11.09-8.2-11.09-30.12-35.58-30.45-58.16S2380.63,1540.39,2380.63,1540.39Z"/><path class="cls-9" d="M2398.77,1572.87S2370,1594.08,2376.2,1601,2398.77,1572.87,2398.77,1572.87Z"/><path class="cls-9" d="M2400.14,1660.45s53.36-17.11,58.83,0Z"/><path class="cls-9" d="M2069.72,2569.2S2041,2588,2026.6,2585.27a51.72,51.72,0,0,0-29.08,4.81,86.41,86.41,0,0,1-36.25,23.61c-23.28,7.87-55.76,4.77-74.24-1.37-8.72-2.92-9.42-6.69-5.21-11.31,20.07,4,65,11.94,77,6.18a322,322,0,0,0,38.32-24s29.57-4.1,33.52-4.1c2.92,0,25.64-9.39,38.47-14.78Z"/><path class="cls-9" d="M1906.31,1572.88a2.23,2.23,0,0,1-.08.62s-2.24,4.92-14.68,6.71-12.42-4.14-12.42-4.14l.12-1.61C1883.18,1576,1891.77,1577.62,1906.31,1572.88Z"/><path class="cls-9" d="M2023.68,1568.77s0,78-6.65,85.69S2023.68,1568.77,2023.68,1568.77Z"/><path class="cls-9" d="M2332,1593.93l9.94,27.86S2345.9,1594.45,2332,1593.93Z"/><g class="cls-2"><path d="M2090.19,1294.92c2.51-6.39-4.06-12.71-4.91-19.58a12.48,12.48,0,0,0-1.11,6.17c.44,5.21,4.28,10,5.28,14.78A7.87,7.87,0,0,0,2090.19,1294.92Z"/><path d="M2203.71,1368.6c-2.44-10.79-1.7-22.17-4.22-33s-10.19-22.17-20.69-22.17c-4.51,0-9.79,1.63-13-1.73-2-2-2.37-5.25-3.7-7.76-7.39-12.12-30.3-6-39.65.26-14,9.27-33.25,28.74-51.14,24.31-.85,2.07-1.66,4.18-2.33,6.36,18.48,5.69,38.14-14.49,52.44-24,9.35-6.21,32.15-12.35,39.65-.22,1.48,2.47,1.88,5.69,3.69,7.75,3.25,3.37,8.54,1.63,13.05,1.7,10.49.19,18.18,11.31,20.69,22.18s1.74,22.61,4.36,33.55A18.55,18.55,0,0,1,2203.71,1368.6Z"/><path d="M2255.14,1355.78c-1.84,5.43-6.72,10.42-12,9.31s-7.83-7.09-11.75-10.86a16.1,16.1,0,0,0-18.47-2.59,18.69,18.69,0,0,0-9.09,16.59,17.83,17.83,0,0,1,8-9.9,16.07,16.07,0,0,1,18.48,2.55c3.92,3.69,6.61,9.79,11.79,10.86s10.12-3.88,12-9.31a43.8,43.8,0,0,0,1.88-9.83A23.29,23.29,0,0,1,2255.14,1355.78Z"/><path d="M2271.25,1309.15c-3.69,10.12-10.82,18.88-13.15,29.56-.44,2.14-.74,4.36-1,6.58,2.37-10.65,9.28-19.37,13.12-29.57a51.45,51.45,0,0,0,3.14-14.19A51.5,51.5,0,0,1,2271.25,1309.15Z"/></g><circle class="cls-34" cx="1776.91" cy="1555.98" r="0.85"/><path class="cls-35" d="M1635.1,2605.57v11.37H1299v-9.23a110.48,110.48,0,0,0,7.6-204.05h326.27a110.47,110.47,0,0,0,2.28,201.91Z"/><path class="cls-9" d="M1632.82,2403.66a110.64,110.64,0,0,0-61,73.25H1367.62a110.69,110.69,0,0,0-61-73.25Z"/><path class="cls-35" d="M914,2345.75v63.81c0,35.24,25.79,63.8,57.61,63.8h989.07c31.82,0,57.61-28.56,57.61-63.8v-63.81Z"/><path class="cls-9" d="M1635.1,2605.57v11.37H1299v-9.23a110.72,110.72,0,0,0,25.92-13.81h289.62A110.76,110.76,0,0,0,1635.1,2605.57Z"/><rect class="cls-35" x="1187.86" y="2597.44" width="558.32" height="33.68" rx="13.81" ry="13.81"/><path class="cls-36" d="M2018.26,1646.51a57.6,57.6,0,0,0-57.61-57.52h-989A57.6,57.6,0,0,0,914,1646.51v711.65H2018.26Z"/><path class="cls-37" d="M1988.2,1672.21v611.5a28.35,28.35,0,0,1-28.33,28.36H972.51a28.35,28.35,0,0,1-28.36-28.33V1672.21a28.36,28.36,0,0,1,28.36-28.36h987.26a28.36,28.36,0,0,1,28.43,28.29Z"/><circle class="cls-6" cx="1466.13" cy="1616.38" r="13.3"/><circle class="cls-6" cx="1466.13" cy="2412.22" r="32.79"/><path class="cls-6" d="M1164.77,1658v654H972.51a28.35,28.35,0,0,1-28.36-28.33V1672.21l1-3.85,2.76-10.32Z"/><polygon class="cls-37" points="1189.43 1668.36 1189.43 1727.23 944.15 1727.23 944.15 1672.21 945.18 1668.36 1189.43 1668.36"/><path class="cls-35" d="M1988.2,1672.21H944.15a28.34,28.34,0,0,1,28.35-28.34h987.27a28.34,28.34,0,0,1,28.43,28.26Z"/><circle class="cls-38" cx="972.51" cy="1658.04" r="7.09"/><circle class="cls-38" cx="993.78" cy="1658.04" r="7.09"/><circle class="cls-38" cx="1015.04" cy="1658.04" r="7.09"/><rect class="cls-5" x="980.81" y="1694.28" width="147.3" height="13.56"/><rect class="cls-39" x="980.81" y="1760.42" width="147.3" height="13.56"/><rect class="cls-39" x="980.81" y="1807.18" width="147.3" height="13.56"/><rect class="cls-39" x="980.81" y="1853.95" width="147.3" height="13.56"/><rect class="cls-39" x="980.81" y="1900.69" width="147.3" height="13.56"/><rect class="cls-39" x="980.81" y="1947.46" width="147.3" height="13.56"/><rect class="cls-39" x="980.81" y="1994.22" width="147.3" height="13.56"/><rect class="cls-39" x="980.81" y="2040.97" width="147.3" height="13.56"/><rect class="cls-40" x="1285.36" y="1744.15" width="652.69" height="2.18"/><rect class="cls-40" x="1285.36" y="1794.78" width="652.69" height="2.18"/><rect class="cls-40" x="1285.36" y="1845.43" width="652.69" height="2.18"/><rect class="cls-40" x="1285.36" y="1896.06" width="652.69" height="2.18"/><rect class="cls-40" x="1285.36" y="1946.69" width="652.69" height="2.18"/><polygon class="cls-39" points="1938.07 1948.85 1284.56 1948.85 1284.56 1849.28 1344.49 1878.82 1406.52 1887.22 1460.94 1870.81 1526.6 1819.89 1559.63 1800.82 1583.77 1796.16 1606.87 1797.4 1644.87 1816.17 1696.5 1849.06 1737.03 1854.28 1769.17 1843.2 1837.27 1787.41 1872.04 1775.01 1908.42 1780.64 1938.07 1797.75 1938.07 1948.85"/><path class="cls-5" d="M1398.47,1887.25c-58.85,0-113.24-36-113.91-36.46l1.61-2.41c.85.57,84.55,55.95,155.67,28.2,26-10.1,44.4-25.85,62.3-41,18.65-15.89,36.27-30.91,60.27-37.42,27.62-7.45,57.64-.7,80.5,18.09,19.54,16.06,58.47,41.86,99.59,34.14,21-3.92,38.64-19.25,57.35-35.45,35.81-31.11,73-63.22,137.06-17.11l-1.7,2.35c-62.29-44.75-98.5-13.39-133.5,16.95-19,16.49-37,32-58.72,36.12-42.3,7.93-82-18.37-102-34.75-22.14-18.2-51.25-24.71-77.88-17.52-23.39,6.34-40.7,21.14-59.15,36.81-18,15.36-36.7,31.27-63.09,41.56A122,122,0,0,1,1398.47,1887.25Z"/><circle class="cls-5" cx="1599.43" cy="1795.87" r="16.18"/><g class="cls-41"><rect class="cls-42" x="1343.04" y="2062.29" width="95.94" height="20.35"/><rect class="cls-42" x="1563.34" y="2062.29" width="95.94" height="20.35"/><rect class="cls-42" x="1783.63" y="2062.29" width="95.94" height="20.35"/></g><path class="cls-5" d="M1336.25,2204.41c0-29.71,24.17-52.53,53.9-52.53h.42v-13.52h-.42c-37.18,0-67.42,28.88-67.42,66a67.26,67.26,0,0,0,23.1,50.74l9.58-9.58A53.77,53.77,0,0,1,1336.25,2204.41Z"/><path class="cls-39" d="M1391.92,2138.38v13.51a53.89,53.89,0,1,1-35.16,95l-9.61,9.58a67.39,67.39,0,1,0,44.75-118.12Z"/><path class="cls-39" d="M1833.83,2151.2c29.71,0,52.53,24.17,52.53,53.9v.42h13.52v-.42c0-37.17-28.89-67.42-66.05-67.42a67.21,67.21,0,0,0-50.74,23.1l9.58,9.58A53.77,53.77,0,0,1,1833.83,2151.2Z"/><path class="cls-5" d="M1899.86,2206.87h-13.52a53.88,53.88,0,1,1-95-35.16l-9.53-9.58a67.39,67.39,0,1,0,118.12,44.74Z"/><path class="cls-39" d="M1637.88,2142.33l-2.69,13.46c19.78,8,32.43,27.37,32.43,50a53.89,53.89,0,1,1-75.49-49.35l-6-12.14a67.39,67.39,0,1,0,95.06,61.49C1681.2,2176.59,1663.93,2151.71,1637.88,2142.33Z"/><path class="cls-5" d="M1615.48,2151.1a47,47,0,0,1,18.76,3.89l2.69-13.45a59.35,59.35,0,0,0-21.45-4,67.08,67.08,0,0,0-27.62,5.94l6.05,12.11A53.2,53.2,0,0,1,1615.48,2151.1Z"/></g><g id="Layer_4" data-name="Layer 4"><ellipse class="cls-7" cx="1084.75" cy="1294.17" rx="181.8" ry="31.35"/><line class="cls-43" x1="997.65" y1="817.96" x2="994.76" y2="931.9"/><line class="cls-43" x1="1078.05" y1="831.33" x2="1075.45" y2="933.95"/><rect class="cls-44" x="1068.9" y="938.44" width="12.07" height="27.35" rx="1.21" ry="1.21" transform="translate(95.74 2002.44) rotate(-88.54)"/><path class="cls-45" d="M1178.6,1287.09c-2.23-8-3.67-15.15-3.67-15.15s.09-8.85-4.13-15.36l-.08-2.21h0l-.63-16.36a55.78,55.78,0,0,1,3.79-8.73c2.76-5.25-.91-24-.91-24s-12-26.13-9.94-43.08-25.28-74-25.28-74a72.74,72.74,0,0,1,1.71-16.64,13.6,13.6,0,0,0,.19-3.49v-.29c-.79-11.09-10.38-31.58-10.38-31.58l-.35-39.73s4.71-23.62-5.66-54.68c-3.6-10.83-6-19.52-7.55-26.25-.17-.75-.34-1.49-.49-2.19,18.77-3.6,33-6.54,33-6.54s-12.67-45.25-20.36-53-14.55-32.6-14.55-32.6-5.08-32.11.76-41.78,6.1-26,6.1-26,13.75-10.83,15.35-15.46,4.14-15,3.94-20.46-2.17-10.21-1.69-13.09-4.65-13.54-2.49-18.77a14.3,14.3,0,0,0,.75-5v-.21a68.88,68.88,0,0,0-1.76-13.34,37.78,37.78,0,0,0-14.29-7l-.36-1.21-.94-3.23a15.48,15.48,0,0,0-1.42-.78l-.08-1.17-.31-4.62,1.81-10.46c3.65-18.3-20.64-20.11-20.64-20.11A12.65,12.65,0,0,0,1091,613c-4.94-1.53.24,27.3,2.59,29,1.75,1.35,7.4,10.22,10.12,14.59h0l.43.71a13.5,13.5,0,0,0-1.06,1.21l1.17,6.26.17,1a26.67,26.67,0,0,0-3.61,6.71s4.62,4.69,4,10.15,1.82,12.13,1.94,12.5c-.27-.3-3.51-3.54-6.58-2.61s-11.67,3.88-11.67,3.88-6.45,1.34-5.8,2.8-4.13,7.89-4.13,7.89l-18.08-15.87c-.19-.48-.39-1-.56-1.47a40.14,40.14,0,0,1-1.8-7.18,41.13,41.13,0,0,0,5.51-2,12.11,12.11,0,0,0,4.71-3.27c1.67-2.16,1.9-5,2.52-7.63,1.18-5.13,4-9.77,5.91-14.67a47,47,0,0,0,2.47-26,17.22,17.22,0,0,0-3-7.48c-3-3.81-8.22-5.2-12.07-8.18s-6.49-7.66-11-9.84c-4-2-8.85-1.53-13.27-.62a71.21,71.21,0,0,0-24.46,9.91c-2.48,1.6-5.2,3.45-8.15,3-2.52-.36-4.44-2.29-6.13-4.14a.32.32,0,0,1,.07-.24l-.2-.23a30.65,30.65,0,0,0-2.2,13.15,13.28,13.28,0,0,0,.16,2.09,2.55,2.55,0,0,0,.07.73q0,.3,0,.6h0a3.68,3.68,0,0,1-.1.93,6.71,6.71,0,0,1-1.54,2.42,14.74,14.74,0,0,0-1.34,2,2.31,2.31,0,0,1,.21-.71,10.3,10.3,0,0,0-1.59,5.56,5.45,5.45,0,0,0,1.46,3.88,19,19,0,0,0,2.94,2.18,31.68,31.68,0,0,0-.3,5.84,33.68,33.68,0,0,0,17.54,28.15l.64,1.48c2.46,5.78,4.4,12.55,3.91,18.89a9.11,9.11,0,0,1-.16,1.34c-.22.24-.42.5-.61.75h0s-28.79,1.34-35.8-4.49-16.53,15.65-16.53,15.65-10.25,2.4-12.38.48-14.17.26-14.17.26A26.06,26.06,0,0,0,923,706.55a53.16,53.16,0,0,0-13.48-6.84h0l-.32-.1h0a14.73,14.73,0,0,0-6.53-.58s-14.6-11.16-19-17.28-24.94-28.67-25-28.76l-.1-1.14-.35-3.38a12.86,12.86,0,0,1-1.75.21q-.18-.49-.45-1.17a63.32,63.32,0,0,0-4.54-9.38s-.16-4.29,1-5.36S851.34,616,851.34,616s-13.91-29.33-24.49-6.62c0,0-21.05,15.25-2.26,31.32,0,0,7.37,3.22,8.5,6,.74,1.78,3.39,6.7,5.18,10l.79,1.47-.2.18.37,2.79.15,1.08c-3.34,2.08-5.58,4.09-5,5.51a32.44,32.44,0,0,1,2.36,7.63s26.28,30.45,30.05,43.74c0,0,68.78,37.39,91,39.4l-3.05,20.11s-.73,12.07-.27,16.3-1.75,23.8-1.75,23.8-2.68,28.71-5.82,32.83-1.85,21.22-1.85,21.22a142.88,142.88,0,0,1-3.48,24.45c-2.83,11,0,24.29,0,24.29s-10.22,26.14,15.94,7.69c0,0,13.15-1.34,28.31-2.43v1.52c0,2,.08,4,.14,6.3.37,14.75,1.06,35,2.31,50.32,2.23,27.07,12.55,80.45,12.55,80.45l1,27a37,37,0,0,0-.47,7.73,50.19,50.19,0,0,0,8.3,26.71l2.77,17.92s5.36,11.65,5.65,18.77a9.1,9.1,0,0,1-.13,1.73,12.14,12.14,0,0,0-.13,2.76c0,8.18,5.71,27.53,5.71,27.53s1.06,19.68,4,20.71c2.56.89-2.94,11.48-4.57,14.54a2.7,2.7,0,0,0-.14-.56l-.33.6a14,14,0,0,0-.74,5,7.18,7.18,0,0,0,3.54,6.8c5.74,3.22,8.86,6,4.14,7.28-1.73.36-3.45.81-5.14,1.34l-.27-.64a3.15,3.15,0,0,0-1.71,3.38c-.08,1.43.49,3.53,2,6.61,5.12,10.38,8.55,14.25,8.55,14.25l2.25-.35a11.13,11.13,0,0,1-1.22,2.5,9.37,9.37,0,0,1-3.21,3.08,10.27,10.27,0,0,1-4,1.54,11.37,11.37,0,0,0-8.2,4.39c-2.79,3.91-4.44,9.17,1.55,13.5l21.38,6.46s36.45,3.33,34.21-4.74S1072,1286,1072,1286a32.4,32.4,0,0,0-3.5-14.32,15.05,15.05,0,0,0-1.34-2.08l1.27-.2s2-18.09,5.37-21.65c.77-.83.94-1.43.73-1.9.33-1-.61-1.53-1.82-1.81-.08.24-.16.47-.23.72a18,18,0,0,0-3.44-.24s-1.55-9.38,2.16-13a3.65,3.65,0,0,0,.63-2.83,15.45,15.45,0,0,0-.54-3.82,2.31,2.31,0,0,1-.14.23c-2.26-8.48-9.31-21.82-9.31-21.82s-.62-8.55,1.6-12.07-2.09-46.52-2.09-46.52.08-20.88-3-30.48,2.38-21.25,2.38-21.25a2.78,2.78,0,0,0-.1-.62,1,1,0,0,0,.07-.15s-.17-1.34-.47-3.27v.2c-.8-5.5-2.32-15.44-3.32-20-1.44-6.52-1.17-38-1.17-38l4.8-13.62,10.32,22.79,11.21,30.46s5.23,6.31,5.59,12.91v3a18.37,18.37,0,0,0,3.49,10.87s3.22,14.46,7.48,18,4.56,10.73,4.56,10.73,5.82,20.93,8.33,24.55c2.1,3.05,2.55,11.65,2.68,14.28h0v.76s1,7.52,1.21,13.88v2.09a22.3,22.3,0,0,1-.42,5.16.47.47,0,0,1-.08.3v-1.07a53.81,53.81,0,0,0-1,13.22c.16,7.6,1.66,16.54,6.46,21.65,8.31,8.84,13.29,7.5,13.29,7.5s-3.4,11.57-8,14a2.27,2.27,0,0,0-.48.33,4.16,4.16,0,0,0-.15-.66,5.56,5.56,0,0,0-1.22,4.31c-.15,5,3.34,13.07,6.49,16.71a9.5,9.5,0,0,0,4,2.17q-.35.26-.72.48a14.27,14.27,0,0,1-1.6.83,7.64,7.64,0,0,1-2.38.73,11.27,11.27,0,0,0-8.2,4.38c-2.79,3.9-4.45,9.16,1.55,13.49l21.38,6.46S1180.84,1295.16,1178.6,1287.09Z"/><path class="cls-46" d="M1040.55,1305.91l-20.69-6.43c-5.81-4.35-4.23-9.6-1.52-13.5a10.86,10.86,0,0,1,7.93-4.39,9.38,9.38,0,0,0,3.84-1.53,9.22,9.22,0,0,0,3.13-3.08,15.16,15.16,0,0,0,2-8s22.17-7.43,28.55-1.1a16.54,16.54,0,0,1,2.87,3.88,33.27,33.27,0,0,1,3.42,14.29s1.41,7.08,3.58,15.15S1040.55,1305.91,1040.55,1305.91Z"/><path class="cls-46" d="M1140.13,1292l-20.7-6.49c-5.81-4.34-4.21-9.6-1.52-13.5a10.78,10.78,0,0,1,7.93-4.37,7.19,7.19,0,0,0,2.3-.73,11.59,11.59,0,0,0,1.56-.82c5.59-3.36,5.14-11.06,5.14-11.06s22.16-7.43,28.56-1.1a17.06,17.06,0,0,1,2.25,2.83c4.1,6.5,4,15.38,4,15.38s1.42,7.09,3.58,15.15S1140.13,1292,1140.13,1292Z"/><path class="cls-9" d="M1063.81,1267.85a16.48,16.48,0,0,1,2.87,3.87h0l-33.44,5.19a15.07,15.07,0,0,0,2-8S1057.43,1261.52,1063.81,1267.85Z"/><path class="cls-9" d="M1165.61,1256.77l.24,6.29c-4.88,8.81-30.24,7.9-37.75,3.86a11.59,11.59,0,0,0,1.56-.82c5.59-3.36,5.13-11.06,5.13-11.06s22.17-7.43,28.57-1.1A17.06,17.06,0,0,1,1165.61,1256.77Z"/><path class="cls-47" d="M1168.56,1229.51a55.07,55.07,0,0,0-3.66,8.72l.87,22.55c-5.36,9.64-35.17,7.64-39.37,2.68s-9-18.23-4.5-20.7,7.75-14,7.75-14-4.82,1.34-12.88-7.51-6.55-29.2-5.36-34.11-.83-21.13-.83-21.13-.15-11.43-2.58-15-8-24.56-8-24.56-.27-7.15-4.41-10.73-7.27-18-7.27-18a18.74,18.74,0,0,1-3.32-12.16c.57-7.18-5.43-14.67-5.43-14.67l-10.89-30.45-10-22.8-4.63,13.63s-.21,31.45,1.18,38,3.78,23.88,3.78,23.88-5.28,11.64-2.33,21.24,2.88,30.49,2.88,30.49,4.24,43,2.08,46.53-1.53,12.07-1.53,12.07,12.67,24.67,9.09,28.23-2.07,12.94-2.07,12.94,8-.31,4.69,3.26-5.16,21.64-5.16,21.64l-34.37,5.37s-3.33-3.88-8.3-14.27.5-9.45,5-10.73,1.54-4-4-7.28-2.68-11-2.68-11,7.73-14.3,4.84-15.34-3.94-20.71-3.94-20.71-6.61-23.2-5.37-29.5-5.36-21.24-5.36-21.24l-2.68-17.91C998.67,1109.39,1002,1093,1002,1093l-1.07-27.71s-10.06-53.36-12.24-80.45c-1.34-17.35-2.11-41.05-2.43-55.86-.19-8.31-.25-13.81-.25-13.81l122.85-17.59s.09,5.7,2.93,18.24c1.52,6.7,3.84,15.42,7.35,26.26,10.06,31.06,5.54,54.68,5.54,54.68l.39,39.73s11.86,26.14,9.93,35.36a76.12,76.12,0,0,0-1.59,16.63s26.49,57,24.58,74,9.65,43.08,9.65,43.08S1171.21,1224.26,1168.56,1229.51Z"/><path class="cls-11" d="M1092.32,1083.48l37.35-6.45S1109.29,1099.56,1092.32,1083.48Z"/><path class="cls-9" d="M1122.83,1040.56s1.8,13.22-6.15,18.53C1116.68,1059.09,1131.16,1056.25,1122.83,1040.56Z"/><path class="cls-9" d="M1118.91,998.39s-30.4,27-41.89,25.34S1118.91,998.39,1118.91,998.39Z"/><path class="cls-9" d="M1046.27,1097.4s-23.65,6.31-24,15.93S1046.27,1097.4,1046.27,1097.4Z"/><path class="cls-11" d="M1056.07,1216.25s-33.44,7.58-23.72,11.49,25.57,6.71,25.57,6.71S1068.78,1234.63,1056.07,1216.25Z"/><g class="cls-48"><path d="M1025.81,1234.8a6.74,6.74,0,0,1-3.26-4.76l-.32.61s-2.86,7.83,2.68,11c.65.36,1.24.72,1.81,1.09,1-.23,2.07-.41,3.09-.71C1034.39,1240.76,1031.38,1238,1025.81,1234.8Z"/><path d="M1069.07,1230.85c.89-.9.77-3.08.1-5.88-1.43,2.28-1.67,5.72-1.59,8.34A6.61,6.61,0,0,1,1069.07,1230.85Z"/><path d="M1058.47,1089a38.94,38.94,0,0,0-1.87,10.58,42.1,42.1,0,0,1,2.33-7.32S1058.76,1091,1058.47,1089Z"/><path d="M1135,1071.05a13.21,13.21,0,0,0,.2-3.14c-.34,2.16-.56,4.15-.71,5.89C1134.66,1072.87,1134.84,1072,1135,1071.05Z"/><path d="M1061.57,1190.53c.43-.71.6-3.08.6-6.37a21.9,21.9,0,0,0-1.34,8A7.87,7.87,0,0,1,1061.57,1190.53Z"/><path d="M1070.72,1244.1c-2.11,6.52-3.26,17.69-3.26,17.69l-34.37,5.36s-3.32-3.88-8.27-14.29c-.43-.92-.79-1.73-1.07-2.48-2,1-2.77,3.2.2,9.38,5,10.39,8.28,14.27,8.28,14.27l34.37-5.36s1.88-18.09,5.17-21.66C1073.37,1245.29,1072.26,1244.5,1070.72,1244.1Z"/><path d="M1023.13,1194.58s1,19.7,3.94,20.73h0c1.34-3.32,2.16-6.45.86-6.9-2.9-1-3.94-20.73-3.94-20.73s-6.61-23.19-5.37-29.5-5.36-21.24-5.36-21.24l-2.68-17.9c-11-17.31-7.59-33.74-7.59-33.74l-1.07-27.69s-10.06-53.36-12.25-80.45c-1.34-17.33-2.1-41-2.42-55.86,0-2.68-.11-5-.15-7l-1,.14s0,5.5.24,13.81c.34,14.75,1,38.51,2.44,55.85,2.19,27.08,12.25,80.45,12.25,80.45l1,27.67s-3.36,16.43,7.59,33.74l2.68,17.91s6.59,14.9,5.37,21.23S1023.13,1194.58,1023.13,1194.58Z"/><path d="M1127.27,1255.77a33.15,33.15,0,0,1-6-13.35c-3.41,3.32,1.13,15.5,5.11,20.25,4.19,5,34,7,39.35-2.68l-.21-5.44C1158.11,1262.52,1131.23,1260.49,1127.27,1255.77Z"/><path d="M1169.42,1221.84a55.07,55.07,0,0,0-3.66,8.72l.14,4a62,62,0,0,1,2.68-5.83,17.26,17.26,0,0,0,1-7.12A1,1,0,0,0,1169.42,1221.84Z"/><path d="M1128,1227.94a56.31,56.31,0,0,0,2.54-6.89s-4.81,1.34-12.87-7.51c-5.86-6.43-6.7-19-6.18-27.2-1.25,4.9-2.75,25.26,5.36,34.09C1122,1226.21,1125.91,1227.65,1128,1227.94Z"/><path d="M1110.63,1165.2a154.15,154.15,0,0,1,1.22,16.9,22.15,22.15,0,0,1,.49-2.68c1.24-4.91-.84-21.12-.84-21.12s-.14-11.44-2.57-15.06-8-24.56-8-24.56-.26-7.14-4.41-10.73-7.29-18-7.29-18a18.69,18.69,0,0,1-3.33-12.16c.58-7.18-5.36-14.66-5.36-14.66l-11-30.5-10-22.8-4.63,13.68v4.34l3.76-11.06,10,22.8,10.9,30.46s6,7.5,5.36,14.66a18.76,18.76,0,0,0,3.33,12.17s3.13,14.46,7.26,18,4.43,10.73,4.43,10.73,5.66,20.94,8,24.56S1110.63,1165.2,1110.63,1165.2Z"/></g><path class="cls-49" d="M1114.39,639l-1.75,10.52.31,4.62.22,3.42-11.86,1.69-1.43-2.41h0c-2.68-4.37-8.11-13.26-9.82-14.6-2.28-1.76-7.32-30.59-2.53-29.06a12.47,12.47,0,0,1,6.86,5.75S1117.9,620.72,1114.39,639Z"/><path class="cls-9" d="M1113.17,657.57l-11.86,1.69-1.43-2.41h0a10.51,10.51,0,0,1,13.07-2.68Z"/><path class="cls-50" d="M1116.4,663.11l-15.57,4.24-.43-2.32-1.12-6.27s5.9-8.52,15.12-2.68l.91,3.18Z"/><path class="cls-49" d="M861.05,649.9l-16.42,9.66s-.69-1.35-1.64-3.11c-1.72-3.29-4.3-8.24-5-10-1.1-2.68-8.23-6-8.23-6-18.2-16.09,2.16-31.31,2.16-31.31,10.2-22.7,23.7,6.71,23.7,6.71s2.31,15.65,1.14,16.76-1,5.36-1,5.36a63.28,63.28,0,0,1,4.41,9.39C860.74,648.94,861.05,649.9,861.05,649.9Z"/><path class="cls-9" d="M861.05,649.9l-16.42,9.66s-.69-1.35-1.64-3.11c2.29-2.07,10.41-9.2,13.19-9a22.49,22.49,0,0,0,4,0C860.74,648.94,861.05,649.9,861.05,649.9Z"/><path class="cls-50" d="M863,654.92l-18.48,10-.53-4-.38-2.79s10.57-9.78,13.8-9.55a17.27,17.27,0,0,0,4.92-.2l.35,3.39Z"/><path class="cls-49" d="M1071.37,710s-81.79,12.43-66.64,6.85c10.55-3.88,14.55-10.84,15.14-18.42.48-6.34-1.34-13.11-3.78-18.89a81.46,81.46,0,0,0-7.93-14.56s61.48-37,50.18-5.1a50.06,50.06,0,0,0-3,15,41.76,41.76,0,0,0,2.19,15A44.79,44.79,0,0,0,1071.37,710Z"/><path class="cls-9" d="M1058.34,659.89a50.06,50.06,0,0,0-3,15c-5.73,5.2-12.23,5.12-20.56,5.44-6.41.24-13.4,2.07-18.66-.82a82.4,82.4,0,0,0-7.92-14.56S1069.64,628,1058.34,659.89Z"/><circle class="cls-49" cx="1032.41" cy="648.6" r="34"/><path class="cls-9" d="M1071.37,710s-81.79,12.43-66.64,6.85c10.55-3.88,14.55-10.84,15.14-18.42,3.93-4.59,12.07-8,17.23-10a24.66,24.66,0,0,1,14.88-.82,20.38,20.38,0,0,1,5.51,2.31A44.93,44.93,0,0,0,1071.37,710Z"/><path class="cls-9" d="M1116.4,663.11l-15.57,4.24-.43-2.32a13.92,13.92,0,0,1,14.91-5.76Z"/><path class="cls-9" d="M863,654.92l-18.48,10-.53-4c6.58-4.24,17.72-8.76,18.69-9.15Z"/><path class="cls-9" d="M1111.84,915.79c-31.62,6.25-76.66,14.54-83.92,12.62-6-1.58-25.06-.66-41.57.55-.19-8.31-.26-13.81-.26-13.81l122.85-17.59S1109,903.26,1111.84,915.79Z"/><path class="cls-51" d="M1143.3,907.1s-104.09,22-115.48,19-69,2.94-69,2.94c-25.31,18.41-15.44-7.7-15.44-7.7s-2.81-13.33-.09-24.3a147.73,147.73,0,0,0,3.36-24.43s-1.24-17.11,1.75-21.22S954,818.61,954,818.61s2.11-19.54,1.67-23.8.23-16.31.23-16.31l2.93-20.11c-21.45-2-88.15-39.5-88.15-39.5-3.66-13.3-29.13-43.77-29.13-43.77a32.43,32.43,0,0,0-2.3-7.63c-1.89-4.5,23.46-14.63,23.46-14.63s20,22.68,24.27,28.81S905.4,699,905.4,699a14.27,14.27,0,0,1,6.32.59,2.07,2.07,0,0,1,.33.1h0a51.36,51.36,0,0,1,13.08,6.85c10.24-1,17.65,5.9,17.65,5.9s11.64-2.16,13.72-.24,12-.46,12-.46,9.18-21.52,16-15.63,34.66,4.53,34.66,4.53c3.53-5.08,12.42-9,18-11a24.65,24.65,0,0,1,14.88-.82,19.35,19.35,0,0,1,6,2.68l17.54,15.91s4.62-6.47,4-7.87,5.61-2.79,5.61-2.79,8.18-2.9,11.29-3.86,6.12,2.3,6.37,2.6c-.11-.36-2.52-7.19-1.89-12.5s-3.82-10.15-3.82-10.15c9-24.94,32.4-5.24,32.4-5.24s3.08,13.31,1,18.54,2.89,15.9,2.44,18.77,1.43,7.67,1.65,13.09-2.28,15.69-3.86,20.37S1116,753.75,1116,753.75s-.23,16.31-5.86,26-.69,41.78-.69,41.78,6.71,24.9,14.12,32.62S1143.3,907.1,1143.3,907.1Z"/><path class="cls-9" d="M983.32,725.12s-3.5-9.3-6.4-10a67.3,67.3,0,0,1-8.42-3.39l1.71-3.6s10.84,2.54,12.67,5.61S983.32,725.12,983.32,725.12Z"/><path class="cls-9" d="M925.14,706.49c-.47,2.88-25.77,6.42-25.77,6.42l12.35-13.41h0l.32.11h0A51.26,51.26,0,0,1,925.14,706.49Z"/><circle class="cls-47" cx="850.11" cy="670.14" r="2.28"/><circle class="cls-47" cx="853.2" cy="674.59" r="2.28"/><circle class="cls-47" cx="856.22" cy="678.69" r="2.28"/><circle class="cls-47" cx="859.4" cy="683.14" r="2.28"/><circle class="cls-47" cx="1128.51" cy="672.54" r="1.86"/><circle class="cls-47" cx="1128.95" cy="676.73" r="1.86"/><circle class="cls-47" cx="1129.36" cy="680.93" r="1.86"/><path class="cls-9" d="M986.44,802.49c-.28-.33,67.21,78.47,115.32,29.58C1101.81,832.07,1023.28,845.81,986.44,802.49Z"/><path class="cls-9" d="M951.07,846.16s38.55-.43,43,10.49l.44,11.53a7.33,7.33,0,0,1-7.16.28c-4-2-27.7-12.88-35.69-6.88Z"/><path class="cls-51" d="M951.81,846.14s36.87-.42,41.12,10l.43,11a7,7,0,0,1-6.85.27c-3.79-1.85-26.5-12.28-34.14-6.55Z"/><path class="cls-9" d="M968.89,761.8a124.3,124.3,0,0,0,15.93,25,100.17,100.17,0,0,0,24.26,21.69S969.75,767,968.89,761.8Z"/><path class="cls-9" d="M954.57,717.47S962.07,745,979,753.74Z"/><path class="cls-9" d="M944.84,720.65c-.19-.51-4.87,22.15,22.66,33.52C967.5,754.18,955.86,750.72,944.84,720.65Z"/><path class="cls-9" d="M1112.28,695.57c-.43,0,13.69,8.26,17.58,12.19C1129.86,707.76,1120.39,694.75,1112.28,695.57Z"/><path class="cls-46" d="M1024.42,679.76c.55,1.73,1.22,3.62,2.83,4.48a6.89,6.89,0,0,0,3.23.59c10.37.26,21.17.3,30.59-4a11.51,11.51,0,0,0,4.56-3.29c1.63-2.14,1.84-5,2.43-7.61,1.14-5.12,3.84-9.76,5.71-14.67a48.38,48.38,0,0,0,2.36-26,17.27,17.27,0,0,0-2.88-7.48c-2.9-3.82-8-5.22-11.72-8.2s-6.27-7.67-10.61-9.85c-3.9-2-8.56-1.54-12.84-.64a67.27,67.27,0,0,0-23.59,9.93c-2.4,1.6-5,3.45-7.88,3-2.51-.36-4.39-2.39-6.06-4.28a31.7,31.7,0,0,0-2,14.9,6.48,6.48,0,0,1,0,2.24,6.77,6.77,0,0,1-1.49,2.41c-2.44,3.07-3.86,7.82-1.22,10.73,1.15,1.26,2.87,1.9,4,3.19,2,2.32,1.5,5.78,1.57,8.83a4.53,4.53,0,0,0,.87,3,4.42,4.42,0,0,0,4.23.85,11.38,11.38,0,0,1,4.45-.61,7.31,7.31,0,0,1,4,2.85C1020,665.9,1022.14,672.51,1024.42,679.76Z"/><g class="cls-2"><path d="M1066.67,674.83a11.57,11.57,0,0,1-4.55,3.27c-9.39,4.36-20.22,4.32-30.61,4a7,7,0,0,1-3.23-.59c-1.6-.86-2.28-2.76-2.83-4.49-2.28-7.24-4.41-13.86-9.39-19.76a7.4,7.4,0,0,0-4-2.83,11.39,11.39,0,0,0-4.45.59,4.46,4.46,0,0,1-4.24-.83,4.65,4.65,0,0,1-.87-3c-.07-3.06.44-6.52-1.56-8.83-1.12-1.34-2.84-1.93-4-3.2a6.72,6.72,0,0,1-.91-6.79c-1.7,3-2.35,6.71-.13,9.12,1.14,1.26,2.87,1.91,4,3.21,2,2.3,1.5,5.76,1.57,8.82a4.55,4.55,0,0,0,.87,3,4.42,4.42,0,0,0,4.22.84,11.61,11.61,0,0,1,4.45-.6,7.35,7.35,0,0,1,4,2.84c5,5.9,7.14,12.51,9.38,19.76.55,1.73,1.22,3.62,2.83,4.5a7.31,7.31,0,0,0,3.23.59c10.38.24,21.18.28,30.6-4a11.6,11.6,0,0,0,4.56-3.27,9.56,9.56,0,0,0,1.34-2.81A5.58,5.58,0,0,1,1066.67,674.83Z"/><path d="M998.66,627.86a4.73,4.73,0,0,0,1-1.76,5.92,5.92,0,0,0,0-2.22,31.43,31.43,0,0,1,1.12-12.35l-.2-.23a31.67,31.67,0,0,0-2,14.9A8.37,8.37,0,0,1,998.66,627.86Z"/></g><path class="cls-9" d="M1019.15,700.59s42.65,4,46.23-2.54"/><path class="cls-9" d="M1101,679.84s23.58-.87,29.11,7.77"/></g></svg>